<svg width="21" height="21" viewBox="0 0 21 21" fill="none" xmlns="http://www.w3.org/2000/svg">
<path d="M9.86255 3.02148C9.53587 3.02148 9.26676 3.29536 9.26676 3.62785V4.03209H7.13497C6.7865 4.03209 6.46251 4.21861 6.28319 4.52279L5.97676 5.0427H5.29487C4.85849 5.0427 4.50049 5.40705 4.50049 5.85118C4.50049 6.29531 4.85849 6.65967 5.29487 6.65967H5.5082L6.21802 16.05C6.26555 16.68 6.78523 17.17 7.4061 17.17H13.9078C14.5286 17.17 15.0483 16.68 15.0958 16.05L15.8057 6.65967H16.019C16.4554 6.65967 16.8134 6.29531 16.8134 5.85118C16.8134 5.40705 16.4554 5.0427 16.019 5.0427H15.3371L15.0307 4.52279C14.8513 4.21861 14.5274 4.03209 14.1789 4.03209H12.0471V3.62785C12.0471 3.29536 11.778 3.02148 11.4513 3.02148H9.86255ZM9.86255 3.42573H11.4513C11.5635 3.42573 11.6499 3.51364 11.6499 3.62785V4.03209H9.66395V3.62785C9.66395 3.51364 9.75034 3.42573 9.86255 3.42573ZM7.13497 4.43633H9.432C9.45345 4.43994 9.47533 4.43994 9.49678 4.43633H11.8151C11.8366 4.43994 11.8585 4.43994 11.8799 4.43633H14.1789C14.3885 4.43633 14.5819 4.54789 14.6897 4.73083L14.993 5.24482H14.3309C14.3178 5.24463 14.3047 5.2471 14.2925 5.2521C14.2803 5.25709 14.2692 5.2645 14.2598 5.27391C14.2504 5.28331 14.243 5.29452 14.2379 5.30687C14.2328 5.31923 14.2302 5.33249 14.2302 5.34588C14.2302 5.35927 14.2328 5.37253 14.2379 5.38489C14.243 5.39724 14.2504 5.40845 14.2598 5.41785C14.2692 5.42725 14.2803 5.43467 14.2925 5.43966C14.3047 5.44465 14.3178 5.44713 14.3309 5.44694H15.3239H16.019C16.2408 5.44694 16.4162 5.62548 16.4162 5.85118C16.4162 6.07688 16.2408 6.25542 16.019 6.25542H5.29487C5.0731 6.25542 4.89768 6.07688 4.89768 5.85118C4.89768 5.62548 5.0731 5.44694 5.29487 5.44694H6.08925H12.9408C12.9539 5.44713 12.967 5.44465 12.9792 5.43966C12.9914 5.43467 13.0025 5.42725 13.0119 5.41785C13.0213 5.40845 13.0287 5.39724 13.0338 5.38489C13.0389 5.37253 13.0415 5.35927 13.0415 5.34588C13.0415 5.33249 13.0389 5.31923 13.0338 5.30687C13.0287 5.29452 13.0213 5.28331 13.0119 5.27391C13.0025 5.2645 12.9914 5.25709 12.9792 5.2521C12.967 5.2471 12.9539 5.24463 12.9408 5.24482H6.32081L6.62413 4.73083C6.73198 4.54789 6.9254 4.43633 7.13497 4.43633ZM13.5366 5.24482C13.5234 5.24463 13.5103 5.2471 13.4981 5.2521C13.4859 5.25709 13.4748 5.2645 13.4654 5.27391C13.4561 5.28331 13.4486 5.29452 13.4435 5.30687C13.4385 5.31923 13.4358 5.33249 13.4358 5.34588C13.4358 5.35927 13.4385 5.37253 13.4435 5.38489C13.4486 5.39724 13.4561 5.40845 13.4654 5.41785C13.4748 5.42725 13.4859 5.43467 13.4981 5.43966C13.5103 5.44465 13.5234 5.44713 13.5366 5.44694H13.9337C13.9469 5.44713 13.96 5.44465 13.9722 5.43966C13.9844 5.43467 13.9955 5.42725 14.0049 5.41785C14.0142 5.40845 14.0217 5.39724 14.0268 5.38489C14.0318 5.37253 14.0345 5.35927 14.0345 5.34588C14.0345 5.33249 14.0318 5.31923 14.0268 5.30687C14.0217 5.29452 14.0142 5.28331 14.0049 5.27391C13.9955 5.2645 13.9844 5.25709 13.9722 5.2521C13.96 5.2471 13.9469 5.24463 13.9337 5.24482H13.5366ZM5.90617 6.65967H15.4077L14.6998 16.0192C14.6679 16.4423 14.3247 16.7657 13.9078 16.7657H7.4061C6.98912 16.7657 6.64596 16.4423 6.61405 16.0192L5.90617 6.65967ZM8.27379 7.46815C7.94589 7.46815 7.678 7.74079 7.678 8.07451V15.1488C7.678 15.4825 7.94589 15.7551 8.27379 15.7551C8.60169 15.7551 8.86957 15.4825 8.86957 15.1488V8.07451C8.86957 7.74079 8.60169 7.46815 8.27379 7.46815ZM10.6569 7.46815C10.329 7.46815 10.0611 7.74079 10.0611 8.07451V15.1488C10.0611 15.4825 10.329 15.7551 10.6569 15.7551C10.9848 15.7551 11.2527 15.4825 11.2527 15.1488V14.4413C11.2529 14.4279 11.2505 14.4146 11.2456 14.4022C11.2407 14.3898 11.2334 14.3785 11.2241 14.3689C11.2149 14.3594 11.2039 14.3518 11.1917 14.3467C11.1796 14.3415 11.1666 14.3388 11.1534 14.3388C11.1403 14.3388 11.1272 14.3415 11.1151 14.3467C11.1029 14.3518 11.0919 14.3594 11.0827 14.3689C11.0735 14.3785 11.0662 14.3898 11.0613 14.4022C11.0564 14.4146 11.0539 14.4279 11.0541 14.4413V15.1488C11.0541 15.3733 10.8775 15.553 10.6569 15.553C10.4363 15.553 10.2597 15.3733 10.2597 15.1488V8.07451C10.2597 7.84998 10.4363 7.67027 10.6569 7.67027C10.8775 7.67027 11.0541 7.84998 11.0541 8.07451V13.2286C11.0539 13.242 11.0564 13.2553 11.0613 13.2677C11.0662 13.2801 11.0735 13.2915 11.0827 13.301C11.0919 13.3105 11.1029 13.3181 11.1151 13.3233C11.1272 13.3284 11.1403 13.3311 11.1534 13.3311C11.1666 13.3311 11.1796 13.3284 11.1917 13.3233C11.2039 13.3181 11.2149 13.3105 11.2241 13.301C11.2334 13.2915 11.2407 13.2801 11.2456 13.2677C11.2505 13.2553 11.2529 13.242 11.2527 13.2286V8.07451C11.2527 7.74079 10.9848 7.46815 10.6569 7.46815ZM13.0401 7.46815C12.7122 7.46815 12.4443 7.74079 12.4443 8.07451V8.3777C12.4441 8.39109 12.4465 8.40439 12.4514 8.41681C12.4563 8.42924 12.4636 8.44055 12.4729 8.45009C12.4821 8.45962 12.4931 8.4672 12.5052 8.47237C12.5174 8.47753 12.5304 8.4802 12.5436 8.4802C12.5567 8.4802 12.5698 8.47753 12.5819 8.47237C12.594 8.4672 12.6051 8.45962 12.6143 8.45009C12.6235 8.44055 12.6308 8.42924 12.6357 8.41681C12.6406 8.40439 12.6431 8.39109 12.6429 8.3777V8.07451C12.6429 7.84998 12.8194 7.67027 13.0401 7.67027C13.2607 7.67027 13.4373 7.84998 13.4373 8.07451V15.1488C13.4373 15.3733 13.2607 15.553 13.0401 15.553C12.8194 15.553 12.6429 15.3733 12.6429 15.1488V9.99467C12.6431 9.98128 12.6406 9.96798 12.6357 9.95555C12.6308 9.94312 12.6235 9.93181 12.6143 9.92228C12.6051 9.91274 12.594 9.90517 12.5819 9.9C12.5698 9.89483 12.5567 9.89217 12.5436 9.89217C12.5304 9.89217 12.5174 9.89483 12.5052 9.9C12.4931 9.90517 12.4821 9.91274 12.4729 9.92228C12.4636 9.93181 12.4563 9.94312 12.4514 9.95555C12.4465 9.96798 12.4441 9.98128 12.4443 9.99467V15.1488C12.4443 15.4825 12.7122 15.7551 13.0401 15.7551C13.368 15.7551 13.6358 15.4825 13.6358 15.1488V8.07451C13.6358 7.74079 13.368 7.46815 13.0401 7.46815ZM8.27379 7.67027C8.49441 7.67027 8.67098 7.84998 8.67098 8.07451V15.1488C8.67098 15.3733 8.49441 15.553 8.27379 15.553C8.05317 15.553 7.8766 15.3733 7.8766 15.1488V8.07451C7.8766 7.84998 8.05317 7.67027 8.27379 7.67027ZM12.542 8.88142C12.529 8.88163 12.5161 8.88445 12.5041 8.88972C12.4922 8.89499 12.4813 8.90261 12.4723 8.91214C12.4632 8.92167 12.456 8.93293 12.4512 8.94527C12.4464 8.95761 12.4441 8.97079 12.4443 8.98406V9.3883C12.4441 9.40169 12.4465 9.41499 12.4514 9.42742C12.4563 9.43985 12.4636 9.45116 12.4729 9.46069C12.4821 9.47023 12.4931 9.4778 12.5052 9.48297C12.5174 9.48814 12.5304 9.4908 12.5436 9.4908C12.5567 9.4908 12.5698 9.48814 12.5819 9.48297C12.594 9.4778 12.6051 9.47023 12.6143 9.46069C12.6235 9.45116 12.6308 9.43985 12.6357 9.42742C12.6406 9.41499 12.6431 9.40169 12.6429 9.3883V8.98406C12.6431 8.97052 12.6406 8.95708 12.6356 8.94453C12.6306 8.93198 12.6232 8.92059 12.6138 8.91101C12.6044 8.90144 12.5932 8.89389 12.5809 8.8888C12.5685 8.88372 12.5553 8.88121 12.542 8.88142Z" fill="white"/>
</svg>
