<svg width="168" height="105" viewBox="0 0 168 105" fill="none" xmlns="http://www.w3.org/2000/svg">
<g clip-path="url(#clip0_6_93)">
<g clip-path="url(#clip1_6_93)">
<path d="M72.7405 13.1169C73.2573 13.1169 73.6759 13.4418 73.6759 13.8429C73.6759 14.244 73.2573 14.5689 72.7405 14.5689H63.7976L57.3593 19.5654C56.9945 19.8486 56.4028 19.8486 56.0356 19.5654C55.6708 19.2823 55.6708 18.8231 56.0356 18.5382L61.1526 14.567H46.0099C41.6904 14.567 38.828 15.3493 37.0787 16.9283C35.3013 18.5345 34.581 21.0192 34.581 24.3878C34.581 24.4078 34.581 24.4277 34.5787 24.4477L34.6582 35.1269L40.168 30.8509C40.5328 30.5677 41.1245 30.5677 41.4917 30.8509C41.8565 31.134 41.8565 31.5932 41.4917 31.8781L34.6745 37.1687C34.7517 47.5975 34.747 57.9373 34.6699 68.366C44.2279 75.7003 53.6526 83.0091 63.1006 90.425H72.6189C73.1357 90.425 73.5543 90.7499 73.5543 91.151C73.5543 91.5521 73.1357 91.877 72.6189 91.877H64.9505L74.6792 99.5144L74.6816 99.5126C77.7522 101.896 80.5235 103.255 83.241 103.417C85.921 103.574 88.6572 102.556 91.7115 100.188L102.42 91.877H94.6488C94.132 91.877 93.7134 91.5521 93.7134 91.151C93.7134 90.7499 94.132 90.425 94.6488 90.425H104.291L110.526 85.5864C110.891 85.3032 111.482 85.3032 111.849 85.5864C112.214 85.8695 112.214 86.3287 111.849 86.6136L106.936 90.4269H122.079C126.398 90.4269 129.261 89.6446 131.01 88.0656C132.787 86.4594 133.508 83.9747 133.508 80.6061H133.512L133.433 69.867L127.427 74.5278C127.062 74.811 126.471 74.811 126.103 74.5278C125.739 74.2447 125.739 73.7855 126.103 73.5006L133.416 67.8252C133.339 57.3964 133.344 47.0566 133.421 36.6279C123.863 29.2936 114.438 21.9848 104.99 14.5689H95.1844C94.6675 14.5689 94.2489 14.244 94.2489 13.8429C94.2489 13.4418 94.6675 13.1169 95.1844 13.1169H103.14L93.4561 5.51403C93.4397 5.50315 93.4257 5.49226 93.4093 5.48137C90.3387 3.09833 87.5674 1.73892 84.8499 1.57739C82.1699 1.41949 79.4337 2.43768 76.3794 4.8062L65.6708 13.1169H72.7428H72.7405ZM46.0099 13.1169H63.0235L75.0534 3.78075C78.5216 1.08917 81.7325 -0.0597024 84.9856 0.132683C88.1989 0.321439 91.3443 1.82785 94.7307 4.45591C94.7494 4.47043 94.7657 4.48314 94.7821 4.49766L105.762 13.1169H122.079C126.98 13.1169 130.299 14.0679 132.427 15.99C134.527 17.8866 135.376 20.6762 135.376 24.3914C135.376 24.415 135.374 24.4368 135.371 24.4586L135.287 36.0253L145.949 44.2071L145.951 44.2053C149.338 46.8334 151.279 49.2727 151.522 51.7682C151.77 54.2929 150.287 56.7848 146.821 59.4764L135.283 68.4314L135.371 80.6098H135.376C135.376 84.325 134.525 87.1146 132.427 89.0112C130.299 90.9332 126.98 91.8843 122.079 91.8843H105.065L93.0352 101.22C89.567 103.912 86.356 105.061 83.103 104.868C79.8897 104.68 76.7442 103.173 73.3579 100.545L73.3602 100.543L62.3265 91.8825H46.0099C41.1081 91.8825 37.7896 90.9314 35.6614 89.0094C33.5614 87.1128 32.7124 84.3232 32.7124 80.6079H32.7171L32.8036 68.9741L22.1933 60.834C22.1745 60.8213 22.1558 60.8086 22.1395 60.794C18.7531 58.166 16.8121 55.7267 16.5688 53.2311C16.3209 50.7065 17.8036 48.2146 21.2695 45.523L32.8083 36.568L32.7194 24.4586C32.7171 24.4368 32.7148 24.4132 32.7148 24.3914C32.7148 20.6762 33.566 17.8866 35.6638 15.99C37.7919 14.0679 41.1105 13.1169 46.0122 13.1169H46.0099ZM32.9229 52.4997L32.82 38.6098L22.5908 46.5484C19.5389 48.917 18.2269 51.0423 18.4304 53.1222C18.6362 55.2312 20.3902 57.3837 23.4608 59.765C23.4748 59.7758 23.4912 59.7886 23.5029 59.8013L32.8177 66.9467L32.9229 52.4979V52.4997ZM34.6558 70.3952L34.581 80.6079H34.5857C34.5857 83.9783 35.306 86.463 37.0833 88.0674C38.8326 89.6482 41.6951 90.4287 46.0146 90.4287H60.4814L47.8995 80.5517L34.6582 70.3934L34.6558 70.3952ZM122.079 14.5689H107.612L120.194 24.4459L133.435 34.6042L133.51 24.4513C133.508 24.4313 133.508 24.4114 133.508 24.3914C133.508 21.021 132.787 18.5364 131.01 16.9319C129.261 15.3511 126.398 14.5707 122.079 14.5707V14.5689ZM135.273 38.0508L135.168 52.4997L135.271 66.3896L145.5 58.4509C148.552 56.0824 149.864 53.9571 149.661 51.8771C149.455 49.7664 147.701 47.6156 144.63 45.2344L144.632 45.2326L135.273 38.0526V38.0508Z" fill="white"/>
<g clip-path="url(#clip2_6_93)">
<g clip-path="url(#clip3_6_93)">
<g clip-path="url(#clip4_6_93)">
<g clip-path="url(#clip5_6_93)">
<g clip-path="url(#clip6_6_93)">
<g clip-path="url(#clip7_6_93)">
<path d="M47.7459 67.8337C47.6383 67.8337 47.5845 67.7711 47.5845 67.6459C47.5845 67.5763 47.6006 67.5011 47.6329 67.4204C47.6634 67.3411 47.6876 67.2771 47.7055 67.2283C47.6965 67.1727 47.6921 67.1205 47.6921 67.0718C47.6921 67.0231 47.6831 66.9709 47.6652 66.9152C47.6472 66.8735 47.6383 66.8456 47.6383 66.8317C47.6383 66.7482 47.6876 66.696 47.7862 66.6751L47.7593 66.6125C47.7324 66.5568 47.7145 66.506 47.7055 66.4601C47.6965 66.4156 47.6921 66.3794 47.6921 66.3516C47.6921 66.2959 47.71 66.2555 47.7459 66.2305C47.7817 66.2068 47.8221 66.188 47.8669 66.1741C47.7862 66.1115 47.7459 66.0419 47.7459 65.9654C47.7459 65.9027 47.7817 65.8436 47.8535 65.7879C47.7907 65.7323 47.7593 65.6696 47.7593 65.6001C47.7593 65.5026 47.8266 65.4122 47.961 65.3287C47.9521 65.2521 47.9144 65.1805 47.8481 65.1137C47.7799 65.0482 47.7459 64.9807 47.7459 64.9112C47.7459 64.8625 47.7817 64.8033 47.8535 64.7337C47.8445 64.7059 47.8382 64.676 47.8346 64.644C47.8292 64.6133 47.8266 64.5841 47.8266 64.5563C47.8266 64.5076 47.8292 64.4589 47.8346 64.4102C47.8382 64.3614 47.84 64.3127 47.84 64.264C47.84 64.1875 47.8292 64.1193 47.8077 64.0594C47.7844 64.001 47.7369 63.9544 47.6652 63.9196C47.5845 63.8778 47.5441 63.8291 47.5441 63.7734C47.5441 63.7387 47.5603 63.699 47.5925 63.6545C47.623 63.6085 47.6517 63.5682 47.6786 63.5334L47.5576 63.1472C47.4231 62.6949 47.1944 62.3449 46.8717 62.0971C46.5489 61.8508 46.1768 61.6963 45.7554 61.6337C45.7464 61.6337 45.7374 61.6351 45.7285 61.6379C45.7195 61.6421 45.706 61.6442 45.6881 61.6442C45.6253 61.6442 45.5581 61.6302 45.4864 61.6024H45.3922C45.3115 61.6511 45.2308 61.6755 45.1501 61.6755C45.1053 61.6755 45.065 61.6685 45.0291 61.6546C44.9932 61.6407 44.9574 61.6302 44.9215 61.6233H44.8811C44.8273 61.6233 44.7735 61.6281 44.7198 61.6379C44.666 61.649 44.6122 61.6615 44.5584 61.6755C44.5404 61.6824 44.5198 61.6873 44.4965 61.6901C44.475 61.6943 44.4552 61.6998 44.4373 61.7068C43.998 61.8042 43.6214 61.9747 43.3076 62.2182C43.2986 62.2878 43.2672 62.3414 43.2134 62.379C43.1596 62.4179 43.1103 62.4444 43.0655 62.4583C42.8593 62.6949 42.7561 62.9837 42.7561 63.3246C42.7561 63.4568 42.7741 63.5974 42.8099 63.7463C42.8458 63.8966 42.9041 64.0587 42.9848 64.2327C43.0565 64.3788 43.1776 64.5145 43.3479 64.6398C43.5541 64.6885 43.7021 64.7386 43.7917 64.7901C43.8814 64.843 43.9603 64.8917 44.0285 64.9362C44.0948 64.9821 44.1934 65.0169 44.3243 65.0406C44.4535 65.0656 44.6525 65.0782 44.9215 65.0782H44.9887C45.2308 64.9877 45.4102 64.8604 45.5267 64.6961C45.6433 64.5333 45.7016 64.3649 45.7016 64.191C45.7016 64.0309 45.6549 63.8813 45.5617 63.7421C45.4666 63.603 45.3295 63.4986 45.1501 63.429C45.0425 63.3873 44.9887 63.3281 44.9887 63.2516C44.9887 63.1541 45.0784 63.1054 45.2577 63.1054C45.3026 63.1054 45.3564 63.1089 45.4191 63.1159C45.4819 63.1228 45.5491 63.1402 45.6209 63.1681C45.7733 63.2168 45.9194 63.3107 46.0593 63.4499C46.1974 63.5891 46.2978 63.7456 46.3606 63.9196C46.3875 64.0031 46.4009 64.0901 46.4009 64.1805C46.4009 64.3754 46.3426 64.5646 46.2261 64.7483C46.1095 64.9334 45.9687 65.0935 45.8038 65.2285C45.637 65.3649 45.4774 65.4539 45.325 65.4957C45.1636 65.5374 44.9977 65.5583 44.8273 65.5583C44.2983 65.5583 43.7962 65.4087 43.321 65.1095L43.0251 64.9738L42.9848 64.9634C42.8772 64.9355 42.7633 64.9007 42.6432 64.859C42.5212 64.8172 42.4603 64.7407 42.4603 64.6293V64.5041C42.4603 64.4623 42.4558 64.422 42.4468 64.383C42.4378 64.3454 42.4109 64.3023 42.3661 64.2536C42.2764 64.2188 42.202 64.1701 42.1429 64.1075C42.0855 64.0448 42.0568 63.9787 42.0568 63.9091C42.0568 63.8396 42.0926 63.7769 42.1644 63.7213L42.2182 63.6795C42.1644 63.5612 42.1195 63.4617 42.0837 63.381C42.0478 63.3017 42.0299 63.1994 42.0299 63.0741C42.0299 62.9976 42.0541 62.9384 42.1025 62.8967C42.1527 62.8549 42.2092 62.8097 42.272 62.761C42.272 62.7819 42.2675 62.7958 42.2585 62.8027C42.2675 62.8027 42.272 62.8097 42.272 62.8236L42.3527 62.5731C42.3796 62.5522 42.402 62.5383 42.4199 62.5314C42.393 62.4757 42.3796 62.427 42.3796 62.3852C42.3796 62.26 42.5051 62.1765 42.7561 62.1347C42.7382 62.093 42.7292 62.0617 42.7292 62.0408C42.7292 61.9503 42.7857 61.8668 42.8987 61.7903C43.0099 61.7137 43.1327 61.6455 43.2672 61.5857C43.4017 61.5272 43.5093 61.4841 43.59 61.4563C43.6348 61.4006 43.6958 61.3568 43.7729 61.3248C43.8482 61.2941 43.9262 61.2788 44.0069 61.2788C44.0607 61.2788 44.1127 61.2872 44.1629 61.3039C44.2114 61.322 44.2625 61.331 44.3163 61.331C44.3342 61.331 44.3477 61.3275 44.3566 61.3206L44.5046 61.2162C44.5763 61.2162 44.6373 61.2127 44.6875 61.2058C44.7359 61.1988 44.7915 61.1953 44.8542 61.1953C44.8991 61.1953 44.9376 61.1988 44.9699 61.2058C45.0004 61.2127 45.0291 61.2232 45.056 61.2371H45.1636C45.2353 61.1953 45.3115 61.1745 45.3922 61.1745C45.446 61.1745 45.4953 61.1814 45.5402 61.1953C45.585 61.2092 45.6253 61.2232 45.6612 61.2371C46.0557 61.2649 46.3991 61.3568 46.6914 61.5126C46.9819 61.6699 47.2348 61.8613 47.45 62.0867C47.6652 62.3136 47.849 62.5536 48.0014 62.8069C48.1538 63.0616 48.2838 63.3038 48.3914 63.5334C48.4183 63.6308 48.4497 63.7122 48.4856 63.7776C48.5214 63.8444 48.5483 63.8848 48.5663 63.8987C48.5573 63.8987 48.5618 63.8917 48.5797 63.8778C48.5977 63.8222 48.6111 63.7317 48.6201 63.6064C48.629 63.4464 48.681 63.2773 48.7761 63.0992C48.8693 62.9224 48.9877 62.7471 49.1311 62.5731C49.2746 62.3991 49.4091 62.2426 49.5346 62.1034C49.5705 62.0408 49.6288 61.9816 49.7095 61.926C49.835 61.8425 49.9785 61.7812 50.1398 61.7423C50.3012 61.7047 50.4537 61.6859 50.5971 61.6859C50.633 61.6859 50.6671 61.6859 50.6993 61.6859C50.7298 61.6859 50.763 61.6894 50.7989 61.6963C50.8347 61.6824 50.8706 61.672 50.9065 61.665C50.9423 61.6581 50.9827 61.6546 51.0275 61.6546C51.0903 61.6546 51.153 61.672 51.2158 61.7068V61.6963C51.422 61.6963 51.613 61.7534 51.7887 61.8675C51.9627 61.983 52.1035 62.1173 52.2111 62.2704C52.3186 62.4235 52.3724 62.5662 52.3724 62.6984C52.3724 62.7332 52.3724 62.7679 52.3724 62.8027C52.3724 62.8375 52.368 62.8723 52.359 62.9071C52.3769 62.935 52.3859 62.9628 52.3859 62.9906C52.3859 63.0672 52.3545 63.1437 52.2917 63.2202L52.2783 63.262C52.3411 63.2829 52.3724 63.3177 52.3724 63.3664C52.3724 63.3942 52.3635 63.4304 52.3455 63.4749C52.3276 63.5209 52.3186 63.5717 52.3186 63.6273C52.3186 63.7178 52.2989 63.8375 52.2595 63.9864C52.2182 64.1367 52.1662 64.2501 52.1035 64.3266L52.09 64.3371C52.099 64.358 52.1035 64.3858 52.1035 64.4206C52.1035 64.5041 52.081 64.5911 52.0362 64.6815C52.0362 64.7998 52.0048 64.8903 51.9421 64.9529C51.8793 65.0155 51.7762 65.0851 51.6327 65.1617C51.6058 65.2104 51.5816 65.2591 51.5601 65.3078C51.5368 65.3565 51.5162 65.4052 51.4982 65.4539C51.4444 65.5861 51.4014 65.7114 51.3691 65.8297C51.3386 65.948 51.3234 66.0558 51.3234 66.1533C51.3234 66.5986 51.3727 66.9117 51.4713 67.0927C51.57 67.2736 51.6776 67.3849 51.7941 67.4267C51.839 67.4406 51.8793 67.4496 51.9152 67.4538C51.951 67.4566 51.9869 67.458 52.0228 67.458C52.1214 67.458 52.2137 67.4496 52.2998 67.4329C52.3841 67.4148 52.4666 67.4127 52.5473 67.4267C52.6459 67.4406 52.7248 67.4197 52.784 67.364C52.8414 67.3084 52.8907 67.2402 52.9319 67.1595C52.9714 67.0801 53.0135 67.0091 53.0584 66.9465C53.1032 66.8839 53.1615 66.8526 53.2332 66.8526C53.3049 66.8665 53.3677 66.8909 53.4215 66.9256C53.4753 66.9604 53.5022 67.0057 53.5022 67.0613C53.5022 67.117 53.4708 67.1727 53.408 67.2283H53.3946C53.2153 67.4232 53.0117 67.561 52.784 67.6417C52.5545 67.721 52.3366 67.7607 52.1304 67.7607C51.9421 67.7607 51.7762 67.7328 51.6327 67.6772C51.5341 67.6285 51.4202 67.5519 51.2911 67.4475C51.1602 67.3432 51.0517 67.2075 50.9656 67.0405C50.8814 66.8735 50.8482 66.6821 50.8661 66.4664C50.884 66.2368 50.9154 65.9862 50.9603 65.7149C51.0051 65.4435 51.0589 65.17 51.1217 64.8945C51.1844 64.6203 51.2445 64.3663 51.3019 64.1325C51.3611 63.9001 51.4131 63.7108 51.4579 63.5647C51.4848 63.4673 51.4982 63.3733 51.4982 63.2829C51.4982 63.0811 51.4444 62.8932 51.3368 62.7192C51.2292 62.5453 51.0948 62.4075 50.9334 62.3059C50.772 62.2057 50.6061 62.1626 50.4357 62.1765C50.2743 62.1904 50.0861 62.3191 49.8709 62.5627C49.6557 62.8062 49.4566 63.1354 49.2737 63.5501C49.089 63.9634 48.9563 64.438 48.8756 64.9738C48.7949 65.5583 48.7277 66.0906 48.6739 66.5708C48.6201 67.0509 48.5797 67.4023 48.5528 67.625C48.5439 67.7154 48.4927 67.7767 48.3995 67.8087C48.3045 67.8393 48.2031 67.8546 48.0955 67.8546C48.0328 67.8546 47.9682 67.8511 47.9019 67.8442C47.8337 67.8372 47.7817 67.8337 47.7459 67.8337ZM55.8155 67.7815C55.7886 67.7885 55.7635 67.7975 55.7402 67.8087C55.7186 67.8184 55.6944 67.8233 55.6675 67.8233C55.6227 67.8233 55.5797 67.8094 55.5384 67.7815C55.499 67.7537 55.4792 67.7189 55.4792 67.6772C55.4792 67.6493 55.5017 67.6111 55.5465 67.5623C55.5913 67.5206 55.629 67.4754 55.6595 67.4267C55.6917 67.3779 55.7213 67.3327 55.7482 67.291C55.7482 67.2771 55.7455 67.268 55.7402 67.2638C55.7366 67.261 55.7348 67.2562 55.7348 67.2492C55.7348 67.1935 55.7527 67.1462 55.7886 67.1073C55.8244 67.0697 55.8513 67.0265 55.8693 66.9778C55.8693 66.95 55.8576 66.9187 55.8343 66.8839C55.8128 66.8491 55.7886 66.8108 55.7617 66.7691C55.6093 66.9083 55.4299 67.0231 55.2237 67.1135C55.1878 67.1483 55.143 67.1762 55.0892 67.197L54.8606 67.2492C54.8247 67.2562 54.7844 67.2645 54.7395 67.2743C54.6947 67.2854 54.6499 67.2979 54.605 67.3118C54.5423 67.3606 54.4858 67.4009 54.4356 67.4329C54.3872 67.4635 54.3136 67.4788 54.215 67.4788C54.1702 67.4788 54.1298 67.474 54.094 67.4642C54.0581 67.4531 54.0177 67.4475 53.9729 67.4475C53.9371 67.4475 53.894 67.4531 53.8438 67.4642C53.7954 67.474 53.7398 67.4788 53.677 67.4788C53.5067 67.4788 53.3677 67.4336 53.2601 67.3432C53.1525 67.2527 53.0691 67.1414 53.0099 67.0091C52.9526 66.8769 52.9149 66.7412 52.897 66.6021C52.879 66.4629 52.8701 66.3481 52.8701 66.2576C52.8701 65.9584 52.9508 65.7218 53.1122 65.5479C53.2736 65.3739 53.4708 65.2208 53.7039 65.0886C53.7219 65.0747 53.7371 65.0642 53.7497 65.0573C53.764 65.0503 53.7801 65.0434 53.7981 65.0364C53.8967 64.9807 53.9953 64.9286 54.094 64.8798C54.1926 64.8311 54.2912 64.7824 54.3898 64.7337L54.4167 64.7128C54.5243 64.6293 54.6454 64.5876 54.7799 64.5876H54.8606C54.8606 64.5876 54.8624 64.5855 54.866 64.5813C54.8713 64.5785 54.8785 64.5772 54.8875 64.5772C54.9054 64.5772 54.9341 64.5876 54.9736 64.6085C55.0148 64.6293 55.0444 64.6363 55.0623 64.6293C55.152 64.5946 55.2147 64.5772 55.2506 64.5772C55.2865 64.5772 55.3223 64.5806 55.3582 64.5876C55.3941 64.5946 55.4344 64.605 55.4792 64.6189C55.5241 64.6259 55.5689 64.6363 55.6137 64.6502C55.6586 64.6641 55.6989 64.6781 55.7348 64.692C55.7617 64.5528 55.7904 64.4171 55.8209 64.2849C55.8531 64.1527 55.8693 64.0205 55.8693 63.8883C55.8693 63.8326 55.8666 63.7609 55.8612 63.6732C55.8576 63.587 55.8603 63.4986 55.8693 63.4081C55.8334 63.3594 55.7904 63.3191 55.7402 63.2871C55.6917 63.2564 55.6362 63.2411 55.5734 63.2411H55.533C55.5151 63.2481 55.4945 63.253 55.4712 63.2557C55.4497 63.2599 55.421 63.262 55.3851 63.262C55.3851 63.262 55.3734 63.2599 55.3501 63.2557C55.3286 63.253 55.2999 63.2481 55.2641 63.2411C55.0937 63.2063 55.0085 63.1367 55.0085 63.0324C55.0085 62.935 55.0758 62.8862 55.2103 62.8862C55.282 62.8862 55.3376 62.8897 55.377 62.8967C55.4183 62.9036 55.4837 62.9071 55.5734 62.9071H55.7617C55.8424 62.8862 55.9096 62.8619 55.9634 62.8341C56.0172 62.8062 56.089 62.7923 56.1786 62.7923C56.2324 62.7018 56.331 62.6566 56.4745 62.6566C56.5731 62.6149 56.6377 62.5731 56.6682 62.5314C56.7005 62.4896 56.7883 62.4513 56.9318 62.4165C57.0125 62.3957 57.0932 62.3797 57.1739 62.3685C57.2546 62.3588 57.3308 62.34 57.4025 62.3122C57.4473 62.2913 57.4922 62.2809 57.537 62.2809C57.6446 62.2809 57.6984 62.3226 57.6984 62.4061C57.6984 62.4479 57.6715 62.4945 57.6177 62.546C57.5639 62.5989 57.4742 62.6497 57.3487 62.6984C57.268 62.7749 57.1488 62.8702 56.991 62.9844C56.8349 63.0999 56.7076 63.2063 56.609 63.3038V63.4603C56.609 63.676 56.5749 63.8897 56.5068 64.1012C56.4404 64.3141 56.4073 64.5284 56.4073 64.7442V65.2139C56.4073 65.4852 56.4162 65.7427 56.4342 65.9863C56.4521 66.2298 56.4655 66.4838 56.4745 66.7482C56.4924 66.7691 56.5104 66.7913 56.5283 66.815C56.5462 66.8401 56.5597 66.863 56.5686 66.8839C56.5955 66.8421 56.6449 66.8143 56.7166 66.8004C56.8063 66.7447 56.8869 66.6904 56.9587 66.6376C57.0304 66.5861 57.1559 66.5603 57.3353 66.5603C57.4429 66.5603 57.4967 66.5882 57.4967 66.6438C57.4967 66.6925 57.4581 66.7552 57.381 66.8317C57.3057 66.9083 57.2205 66.9744 57.1255 67.03C57.0322 67.0857 56.9587 67.1135 56.9049 67.1135H56.8645L56.8511 67.1344C56.8242 67.1831 56.7363 67.2527 56.5875 67.3432C56.4404 67.4336 56.288 67.5206 56.1302 67.6041C55.9742 67.6876 55.8693 67.7467 55.8155 67.7815ZM54.1747 66.9465C54.2912 66.9326 54.4078 66.9222 54.5243 66.9152C54.6409 66.9083 54.7709 66.9048 54.9144 66.9048C55.291 66.7586 55.5375 66.5534 55.6541 66.2889C55.6541 66.1637 55.6514 66.0315 55.646 65.8923C55.6424 65.7531 55.6406 65.607 55.6406 65.4539C55.5779 65.3356 55.5124 65.2222 55.4443 65.1137C55.3779 65.0065 55.2282 64.9494 54.9951 64.9425C54.9323 64.9425 54.8426 64.9529 54.7261 64.9738C54.6095 64.9947 54.475 65.0434 54.3226 65.1199C54.2419 65.1965 54.1675 65.3022 54.0993 65.4372C54.033 65.5736 53.9792 65.7128 53.938 65.8547C53.8985 65.9981 53.8788 66.1219 53.8788 66.2263C53.8788 66.3237 53.8967 66.4525 53.9326 66.6125C53.9684 66.7726 54.0491 66.8839 54.1747 66.9465ZM60.2807 63.4812C60.1462 63.4812 60.0072 63.4374 59.8637 63.3497C59.7203 63.2634 59.6486 63.1576 59.6486 63.0324C59.6486 62.9767 59.6889 62.9176 59.7696 62.8549C59.8503 62.7923 59.9175 62.7436 59.9713 62.7088L60.1596 62.594C60.1776 62.5801 60.2063 62.571 60.2457 62.5668C60.2869 62.5641 60.321 62.5627 60.3479 62.5627C60.4645 62.5627 60.5631 62.6058 60.6438 62.6921C60.7245 62.7798 60.7648 62.8549 60.7648 62.9176C60.7648 62.9732 60.7487 63.0463 60.7164 63.1367C60.6859 63.2272 60.6366 63.3072 60.5685 63.3768C60.5021 63.4464 60.4062 63.4812 60.2807 63.4812ZM60.4152 67.5102C60.4152 67.5102 60.3883 67.5032 60.3345 67.4893C60.3165 67.4893 60.2941 67.4858 60.2672 67.4788C60.2403 67.4719 60.2134 67.4649 60.1865 67.458C60.1238 67.4441 60.0655 67.4315 60.0117 67.4204C59.9579 67.4107 59.922 67.4058 59.9041 67.4058C59.8682 67.4058 59.8234 67.4127 59.7696 67.4267C59.7158 67.4406 59.6799 67.4475 59.662 67.4475C59.653 67.4475 59.6369 67.4441 59.6136 67.4371C59.5921 67.4301 59.5768 67.4267 59.5679 67.4267C59.541 67.4197 59.5141 67.4127 59.4872 67.4058C59.4603 67.3988 59.4289 67.3953 59.393 67.3953C59.3482 67.3814 59.2944 67.3759 59.2316 67.3786C59.1689 67.3828 59.124 67.3849 59.0971 67.3849L58.2767 67.3953C58.2498 67.3953 58.2319 67.3919 58.2229 67.3849C58.1512 67.4127 58.0884 67.4267 58.0346 67.4267H57.9943C57.9315 67.4962 57.8688 67.531 57.806 67.531C57.7432 67.531 57.6939 67.5032 57.658 67.4475C57.6222 67.3919 57.6042 67.3292 57.6042 67.2597C57.6042 67.1622 57.667 67.1135 57.7925 67.1135H57.8329C57.8867 67.0787 57.9494 67.0613 58.0212 67.0613C58.0481 67.0613 58.0884 67.0683 58.1422 67.0822C58.196 67.0683 58.2409 67.0613 58.2767 67.0613C58.3305 67.0613 58.3771 67.0662 58.4166 67.076C58.4578 67.0871 58.5054 67.0927 58.5592 67.0927C58.604 67.0927 58.6623 67.0787 58.734 67.0509C58.8057 67.0231 58.8685 66.9952 58.9223 66.9674L58.9626 66.8735C58.8999 66.79 58.8685 66.7169 58.8685 66.6543C58.8685 66.5708 58.9313 66.5012 59.0568 66.4455C59.0299 66.4038 59.0164 66.3655 59.0164 66.3307C59.0164 66.282 59.0478 66.2333 59.1106 66.1846C59.0299 66.1498 58.9895 66.1045 58.9895 66.0489C58.9895 66.0141 59.0075 65.9723 59.0433 65.9236C59.0613 65.9097 59.0747 65.8958 59.0837 65.8819C58.9851 65.8471 58.9357 65.781 58.9357 65.6836C58.9357 65.6001 58.9895 65.5513 59.0971 65.5374C59.0971 65.5235 59.0944 65.5131 59.0891 65.5061C59.0855 65.4992 59.0837 65.4922 59.0837 65.4852C59.0837 65.4435 59.0971 65.4087 59.124 65.3809C59.1509 65.353 59.1823 65.3287 59.2182 65.3078C59.1554 65.2521 59.133 65.193 59.1509 65.1304C59.1151 65.1025 59.0568 65.0956 58.9761 65.1095C58.9671 65.1095 58.9582 65.1109 58.9492 65.1137C58.9402 65.1178 58.9268 65.1199 58.9088 65.1199C58.855 65.1338 58.8192 65.1408 58.8012 65.1408L58.6667 65.1199C58.6488 65.1338 58.6399 65.1443 58.6399 65.1512C58.5412 65.2208 58.4534 65.2626 58.3762 65.2765C58.3009 65.2904 58.2633 65.2974 58.2633 65.2974C58.1377 65.2974 58.075 65.2452 58.075 65.1408C58.075 65.106 58.0902 65.0726 58.1207 65.0406C58.153 65.01 58.2005 64.9947 58.2633 64.9947H58.3036C58.3753 64.8972 58.4919 64.8207 58.6533 64.765C58.8147 64.7094 58.9671 64.6746 59.1106 64.6607C59.1554 64.6398 59.2002 64.6189 59.2451 64.598C59.2899 64.5772 59.3302 64.5563 59.3661 64.5354C59.384 64.5284 59.3993 64.518 59.4118 64.5041C59.4262 64.4902 59.4378 64.4797 59.4468 64.4728L59.4737 64.4519C59.4827 64.4449 59.4872 64.4394 59.4872 64.4352C59.4872 64.4324 59.4872 64.431 59.4872 64.431L59.5948 64.3788L59.7158 64.3266C59.7248 64.3266 59.7472 64.3127 59.783 64.2849C59.8099 64.264 59.8476 64.2362 59.896 64.2014C59.9462 64.1666 59.9893 64.1527 60.0251 64.1596C60.1148 64.1596 60.1704 64.177 60.1919 64.2118C60.2152 64.2466 60.2269 64.2919 60.2269 64.3475C60.2358 64.3962 60.2358 64.4275 60.2269 64.4415C60.2179 64.4484 60.2063 64.4637 60.1919 64.4874C60.1794 64.5124 60.1641 64.5528 60.1462 64.6085C60.1103 64.6989 60.0762 64.7977 60.044 64.9049C60.0135 65.0135 59.9803 65.1199 59.9444 65.2243C59.9355 65.2521 59.9355 65.2814 59.9444 65.312C59.9534 65.344 59.9534 65.3774 59.9444 65.4122C59.9265 65.4818 59.9086 65.5493 59.8906 65.6147C59.8727 65.6815 59.8593 65.7497 59.8503 65.8192C59.8413 65.9027 59.8342 66.005 59.8288 66.1261C59.8252 66.2486 59.8234 66.3571 59.8234 66.4518C59.8234 66.545 59.8234 66.6021 59.8234 66.623C59.8234 66.6438 59.8297 66.6891 59.8422 66.7586C59.8566 66.8282 59.8727 66.8874 59.8906 66.9361C59.9444 67.0335 60.0386 67.1205 60.1731 67.197C60.191 67.204 60.2134 67.2109 60.2403 67.2179C60.2672 67.2249 60.2896 67.2318 60.3076 67.2388L60.469 67.2701C60.5048 67.2771 60.538 67.2875 60.5685 67.3014C60.6008 67.3153 60.6169 67.3327 60.6169 67.3536V67.364C60.6169 67.3988 60.5945 67.4322 60.5497 67.4642C60.5048 67.4949 60.46 67.5102 60.4152 67.5102ZM62.8199 67.4997C62.7034 67.4997 62.594 67.4733 62.4917 67.4204C62.3877 67.3689 62.2909 67.3118 62.2012 67.2492C62.1116 67.1866 62.0264 67.1483 61.9457 67.1344C61.8291 67.1414 61.726 67.1274 61.6364 67.0927C61.5467 67.0579 61.5064 66.9848 61.5153 66.8735C61.3988 66.8178 61.3208 66.7252 61.2813 66.5958C61.2401 66.4678 61.2239 66.3551 61.2329 66.2576C61.1343 66.1811 61.0849 66.0767 61.0849 65.9445C61.0849 65.854 61.1118 65.7879 61.1656 65.7462C61.2194 65.7044 61.2688 65.6488 61.3136 65.5792L61.3001 65.5687C61.2822 65.527 61.2732 65.4922 61.2732 65.4644C61.2732 65.36 61.336 65.2605 61.4615 65.1658C61.5871 65.0726 61.7036 64.9807 61.8112 64.8903C61.8381 64.8694 61.8605 64.8555 61.8785 64.8485C61.9323 64.8068 61.9726 64.765 61.9995 64.7233C62.143 64.5493 62.2846 64.4255 62.4245 64.3517C62.5626 64.2793 62.7706 64.2431 63.0486 64.2431H63.3848C63.5731 64.2431 63.7524 64.2814 63.9228 64.358C63.9497 64.3371 63.99 64.3266 64.0438 64.3266C64.0886 64.3266 64.129 64.3315 64.1649 64.3413C64.2007 64.3524 64.2411 64.358 64.2859 64.358C64.3845 64.358 64.4518 64.3141 64.4876 64.2264C64.5235 64.1402 64.5504 64.0727 64.5683 64.024C64.5952 63.9405 64.6535 63.8987 64.7432 63.8987C64.797 63.8987 64.8508 63.9196 64.9046 63.9613C64.9584 64.0031 64.9853 64.0553 64.9853 64.1179C64.9853 64.1875 64.9539 64.2501 64.8911 64.3058L64.8104 64.3997L64.7835 64.4415C64.7208 64.5319 64.6607 64.6328 64.6033 64.7442C64.5441 64.8555 64.5011 64.9668 64.4742 65.0782L64.4876 65.1825C64.4876 65.2034 64.4832 65.2208 64.4742 65.2347C64.4652 65.2487 64.4563 65.2626 64.4473 65.2765L64.4338 65.3182C64.4338 65.3669 64.4141 65.4031 64.3747 65.4268C64.3334 65.4518 64.2904 65.4644 64.2455 65.4644C64.2007 65.4644 64.1586 65.4518 64.1191 65.4268C64.0779 65.4031 64.0573 65.3669 64.0573 65.3182C64.0573 65.2765 64.0599 65.2347 64.0653 65.193C64.0689 65.1512 64.0752 65.1095 64.0842 65.0677C64.0483 64.859 63.9317 64.7094 63.7345 64.6189C63.6 64.5702 63.4162 64.5458 63.183 64.5458C63.1382 64.5458 63.0692 64.5598 62.9759 64.5876C62.8809 64.6154 62.7912 64.6467 62.7069 64.6815C62.6209 64.7163 62.5733 64.7407 62.5644 64.7546C62.5644 64.7546 62.5626 64.756 62.559 64.7588C62.5536 64.7629 62.5554 64.772 62.5644 64.7859L62.5778 64.8277C62.6137 64.932 62.5868 65.0204 62.4971 65.0928C62.4075 65.1665 62.3178 65.2382 62.2281 65.3078C62.1385 65.3774 62.1071 65.4644 62.134 65.5687C62.0712 65.6453 62.0399 65.7149 62.0399 65.7775C62.0399 65.868 62.0784 65.9563 62.1555 66.0426C62.2308 66.1303 62.2685 66.2437 62.2685 66.3829C62.2685 66.4107 62.264 66.4337 62.255 66.4518C62.2461 66.4685 62.2371 66.4838 62.2281 66.4977L62.2147 66.5186C62.2595 66.5603 62.307 66.5896 62.3573 66.6063C62.4057 66.6243 62.4299 66.6717 62.4299 66.7482V66.7586C62.5285 66.8074 62.6253 66.8679 62.7204 66.9403C62.8136 67.014 62.9185 67.0579 63.0351 67.0718C63.0979 67.0718 63.1472 67.0927 63.183 67.1344C63.3534 67.0787 63.4924 67.0105 63.6 66.9298C63.7076 66.8505 63.86 66.8178 64.0573 66.8317L64.0976 66.79C64.1783 66.7065 64.25 66.6209 64.3128 66.5332C64.3756 66.4469 64.4383 66.3585 64.5011 66.2681C64.5459 66.2054 64.6042 66.1741 64.6759 66.1741C64.7477 66.1741 64.8059 66.1964 64.8508 66.2409C64.8956 66.2869 64.8956 66.3377 64.8508 66.3933C64.8149 66.449 64.7566 66.5374 64.6759 66.6584C64.5952 66.7809 64.5038 66.8909 64.4016 66.9883C64.2976 67.0857 64.1873 67.1344 64.0707 67.1344C64.0169 67.1344 63.9766 67.1309 63.9497 67.124C63.8331 67.2144 63.6627 67.2993 63.4386 67.3786C63.2144 67.4594 63.0082 67.4997 62.8199 67.4997ZM65.4963 67.531C65.4694 67.545 65.4291 67.5519 65.3753 67.5519C65.2587 67.5519 65.2005 67.5067 65.2005 67.4162C65.2005 67.3675 65.2274 67.3223 65.2811 67.2805C65.4067 67.197 65.5412 67.1288 65.6846 67.076C65.8281 67.0245 65.9715 66.9848 66.115 66.957C66.1509 66.9291 66.1733 66.9083 66.1823 66.8943C66.1733 66.8804 66.1688 66.8595 66.1688 66.8317C66.1688 66.7621 66.2092 66.7065 66.2899 66.6647C66.3705 66.5534 66.4315 66.3912 66.4728 66.1783C66.5122 65.9668 66.5454 65.7531 66.5723 65.5374C66.5992 65.3217 66.6216 65.1617 66.6395 65.0573C66.7023 64.7581 66.783 64.4623 66.8816 64.1701C66.9803 63.8778 67.034 63.5821 67.043 63.2829C67.043 63.2272 67.0547 63.1785 67.078 63.1367C67.0995 63.095 67.1237 63.0498 67.1506 63.0011H67.1372C67.0296 62.9802 66.9758 62.9419 66.9758 62.8862C66.9758 62.8445 66.9964 62.7972 67.0376 62.7443C67.0771 62.6928 67.1103 62.6462 67.1372 62.6044C67.0923 62.6392 67.0323 62.6705 66.9569 62.6984C66.8798 62.7262 66.7785 62.7401 66.653 62.7401C66.6261 62.7401 66.6019 62.7345 66.5804 62.7234C66.557 62.7137 66.5319 62.7088 66.505 62.7088C66.4423 62.7088 66.3508 62.7345 66.2307 62.786C66.1087 62.8389 66.0388 62.8828 66.0209 62.9176C65.985 62.9802 65.9312 63.0115 65.8595 63.0115C65.7967 63.0115 65.7411 62.9885 65.6927 62.9426C65.6425 62.8981 65.6353 62.848 65.6712 62.7923C65.7339 62.6879 65.8595 62.5975 66.0478 62.5209C66.2361 62.4444 66.3885 62.4096 66.505 62.4165H66.5185C66.5544 62.4026 66.5768 62.3957 66.5857 62.3957C66.6575 62.3818 66.7247 62.3657 66.7875 62.3477C66.8502 62.331 66.913 62.3122 66.9758 62.2913L67.043 62.2078C67.1506 62.1034 67.2717 62.0303 67.4061 61.9886C67.5406 61.9468 67.6751 61.9086 67.8096 61.8738C67.9441 61.839 68.0607 61.7833 68.1593 61.7068C68.2041 61.672 68.2579 61.6546 68.3207 61.6546C68.4373 61.6546 68.4955 61.7033 68.4955 61.8007C68.4955 61.8355 68.4821 61.8703 68.4552 61.9051C68.3655 61.9956 68.2848 62.0735 68.2131 62.1389C68.1414 62.2057 68.0652 62.2774 67.9845 62.3539C68.0024 62.3957 68.0114 62.4409 68.0114 62.4896C68.0114 62.5383 67.9979 62.6009 67.971 62.6775C67.9621 62.6844 67.9576 62.6928 67.9576 62.7025C67.9576 62.7137 67.9486 62.7227 67.9307 62.7297C67.9307 62.7645 67.9334 62.7972 67.9387 62.8278C67.9423 62.8598 67.9441 62.8932 67.9441 62.928C67.9441 62.9837 67.9334 63.0442 67.9118 63.1096C67.8885 63.1764 67.841 63.2481 67.7693 63.3246C67.7424 63.3455 67.7289 63.3733 67.7289 63.4081C67.7289 63.4777 67.7603 63.5487 67.8231 63.6211C67.8858 63.6948 67.9172 63.7804 67.9172 63.8778C67.9172 63.9822 67.8858 64.0692 67.8231 64.1388C67.7603 64.2084 67.7245 64.271 67.7155 64.3266C67.7245 64.4241 67.7513 64.5215 67.7962 64.6189C67.8231 64.6328 67.85 64.6502 67.8769 64.6711C67.9038 64.692 67.9307 64.7128 67.9576 64.7337C68.0472 64.6502 68.1351 64.5994 68.2212 64.5813C68.3055 64.5646 68.388 64.5563 68.4686 64.5563C68.5762 64.4867 68.6794 64.422 68.778 64.3621C68.8766 64.3037 68.9573 64.2501 69.0201 64.2014L69.047 64.1701C69.0021 64.1492 68.9483 64.1353 68.8856 64.1283C68.8228 64.1214 68.7645 64.1179 68.7107 64.1179C68.648 64.1179 68.5987 64.1005 68.5628 64.0657C68.5269 64.0309 68.509 63.9961 68.509 63.9613C68.509 63.857 68.5762 63.8048 68.7107 63.8048H69.1277C69.1815 63.8048 69.2442 63.8187 69.316 63.8465L69.3429 63.8674H69.3698C69.4684 63.8674 69.5401 63.8813 69.5849 63.9091C69.6298 63.937 69.6791 63.9509 69.7329 63.9509C69.7867 63.937 69.8342 63.921 69.8755 63.9029C69.9149 63.8862 69.966 63.8778 70.0288 63.8778H70.244C70.3516 63.8778 70.4618 63.857 70.5748 63.8152C70.686 63.7735 70.7954 63.7491 70.903 63.7421H70.9568C71.0913 63.7421 71.1585 63.7874 71.1585 63.8778C71.1585 63.9265 71.1227 63.9718 71.0509 64.0135C70.9344 64.0761 70.8223 64.1193 70.7147 64.1429C70.6071 64.168 70.4905 64.1875 70.365 64.2014C70.3291 64.2292 70.2888 64.2431 70.244 64.2431C70.1633 64.2431 70.1095 64.2605 70.0826 64.2953L70.0422 64.3371C69.9526 64.4275 69.845 64.4728 69.7194 64.4728C69.6477 64.4728 69.5939 64.4589 69.558 64.431C69.4505 64.4589 69.3698 64.4985 69.316 64.55C69.2622 64.6029 69.1994 64.6551 69.1277 64.7066C69.0559 64.7595 68.9439 64.7998 68.7914 64.8277C68.7376 64.8555 68.6973 64.8798 68.6704 64.9007L68.3207 65.1199C68.3655 65.1686 68.4059 65.2222 68.4417 65.2807C68.4776 65.3405 68.5135 65.4017 68.5493 65.4644C68.6659 65.4783 68.7242 65.52 68.7242 65.5896C68.7242 65.6035 68.7152 65.6314 68.6973 65.6731C68.6973 65.6801 68.6955 65.6849 68.6919 65.6877C68.6865 65.6919 68.6838 65.701 68.6838 65.7149V65.7253C68.7825 65.7879 68.8676 65.852 68.9394 65.9174C69.0111 65.9842 69.0515 66.0767 69.0604 66.195C69.1949 66.2298 69.3025 66.2959 69.3832 66.3933C69.4639 66.4907 69.5356 66.5916 69.5984 66.696C69.6612 66.8004 69.7239 66.8839 69.7867 66.9465L69.827 66.9361C69.8988 66.9361 69.966 66.9417 70.0288 66.9528C70.0915 66.9625 70.1543 66.9744 70.2171 66.9883C70.3336 66.9952 70.4439 67.0091 70.5479 67.03C70.6501 67.0509 70.7595 67.0683 70.8761 67.0822C70.9478 67.0822 70.9998 67.0975 71.0321 67.1281C71.0626 67.1601 71.0778 67.1935 71.0778 67.2283C71.0778 67.3327 71.0061 67.3849 70.8626 67.3849C70.7461 67.3849 70.6367 67.3724 70.5345 67.3473C70.4305 67.3237 70.3247 67.3049 70.2171 67.291C70.2081 67.291 70.1991 67.2889 70.1902 67.2847C70.1812 67.2819 70.1678 67.2805 70.1498 67.2805C70.114 67.2805 70.0808 67.2854 70.0503 67.2951C70.018 67.3063 69.9795 67.3118 69.9346 67.3118C69.836 67.3118 69.7508 67.291 69.6791 67.2492C69.5625 67.2562 69.4173 67.2701 69.2433 67.291C69.0676 67.3118 68.9259 67.3397 68.8183 67.3745L68.6569 67.4684C68.6121 67.4962 68.5628 67.5102 68.509 67.5102C68.3835 67.5102 68.3207 67.4649 68.3207 67.3745C68.3207 67.3258 68.3476 67.2771 68.4014 67.2283C68.4552 67.1796 68.5493 67.1344 68.6838 67.0927L68.7914 67.0405C68.7556 66.9918 68.7376 66.9465 68.7376 66.9048C68.7376 66.8491 68.7511 66.7969 68.778 66.7482C68.7332 66.7065 68.7018 66.6647 68.6838 66.623C68.6749 66.609 68.6659 66.5951 68.6569 66.5812C68.648 66.5673 68.639 66.5534 68.63 66.5395L68.6031 66.5186C68.4866 66.449 68.4131 66.3843 68.3826 66.3244C68.3503 66.266 68.3279 66.2068 68.3153 66.147C68.301 66.0885 68.2696 66.021 68.2212 65.9445C68.171 65.868 68.0741 65.7775 67.9307 65.6731C67.841 65.5966 67.754 65.52 67.6698 65.4435C67.5837 65.3669 67.5182 65.2834 67.4734 65.193C67.4555 65.193 67.4375 65.1909 67.4196 65.1867C67.4017 65.1839 67.3837 65.1825 67.3658 65.1825C67.3658 65.2034 67.3613 65.2208 67.3524 65.2347L67.3927 65.2765C67.4106 65.3043 67.4286 65.3322 67.4465 65.36C67.4644 65.3878 67.4734 65.4191 67.4734 65.4539C67.4734 65.5096 67.4537 65.5548 67.4142 65.5896C67.373 65.6244 67.3434 65.6488 67.3255 65.6627L67.2986 65.6836C67.2627 65.774 67.2313 65.8923 67.2044 66.0384C67.1775 66.1846 67.1641 66.2959 67.1641 66.3724C67.1641 66.5882 67.2205 66.7322 67.3335 66.8046C67.4447 66.8783 67.6303 66.9396 67.8903 66.9883C68.0069 67.0091 68.0652 67.0579 68.0652 67.1344C68.0652 67.1762 68.0454 67.2123 68.006 67.243C67.9647 67.275 67.9083 67.2875 67.8365 67.2805C67.6213 67.2666 67.4178 67.2527 67.2259 67.2388C67.0323 67.2249 66.8278 67.2179 66.6126 67.2179C66.6037 67.2179 66.5974 67.2193 66.5938 67.2221C66.5884 67.2263 66.5813 67.2283 66.5723 67.2283C66.5364 67.2283 66.4988 67.2283 66.4593 67.2283C66.4181 67.2283 66.375 67.2318 66.3302 67.2388L66.2764 67.2805C66.1598 67.3919 66.0415 67.4461 65.9213 67.4434C65.7994 67.4392 65.6577 67.4684 65.4963 67.531ZM72.88 67.4058H72.4497C72.1269 67.4058 71.8803 67.3049 71.7099 67.1031C71.5934 67.0335 71.4831 66.9514 71.3791 66.8568C71.2769 66.7635 71.2258 66.6682 71.2258 66.5708C71.2258 66.5221 71.2392 66.4733 71.2661 66.4246C71.2213 66.3481 71.2168 66.2959 71.2527 66.2681L71.2661 66.2576C71.2392 66.2437 71.2123 66.2228 71.1854 66.195C71.1585 66.1672 71.1451 66.1289 71.1451 66.0802C71.1451 66.0106 71.163 65.9584 71.1989 65.9236L71.1854 65.9132C71.1765 65.8923 71.172 65.861 71.172 65.8192C71.172 65.7427 71.2051 65.6676 71.2715 65.5938C71.3396 65.5214 71.4051 65.4609 71.4679 65.4122C71.423 65.3426 71.4006 65.2765 71.4006 65.2139C71.4006 65.0747 71.4652 64.939 71.5943 64.8068C71.7252 64.6746 71.84 64.5667 71.9386 64.4832C71.9207 64.3162 72.0193 64.2327 72.2345 64.2327C72.2972 64.2327 72.3663 64.2097 72.4416 64.1638C72.5187 64.1193 72.6155 64.097 72.7321 64.097C72.7769 64.097 72.8128 64.1005 72.8397 64.1075C72.8666 64.1144 72.8935 64.1249 72.9204 64.1388C73.1176 64.1388 73.3032 64.2167 73.4772 64.3726C73.6529 64.5298 73.7964 64.7094 73.9076 64.9112C74.0205 65.113 74.077 65.2904 74.077 65.4435C74.0681 65.4852 74.0367 65.511 73.9829 65.5207C73.9291 65.5319 73.8663 65.5409 73.7946 65.5479H73.687C73.6242 65.5479 73.5633 65.5458 73.5041 65.5416C73.4467 65.5388 73.4046 65.5374 73.3777 65.5374C73.288 65.5374 73.1625 65.5409 73.0011 65.5479C72.8397 65.5548 72.6783 65.5653 72.5169 65.5792C72.3555 65.5931 72.2345 65.614 72.1538 65.6418C72.0641 65.6696 72.0014 65.7427 71.9655 65.861C71.9296 65.9793 71.9117 66.1185 71.9117 66.2785C71.9117 66.3551 71.9386 66.4594 71.9924 66.5916C72.0462 66.7239 72.1242 66.8421 72.2264 66.9465C72.3304 67.0509 72.4586 67.1031 72.6111 67.1031C72.8083 67.1031 72.958 67.0822 73.0603 67.0405C73.1643 66.9987 73.2477 66.9396 73.3104 66.863C73.3284 66.8282 73.3687 66.7948 73.4315 66.7628C73.4942 66.7322 73.5301 66.696 73.5391 66.6543C73.557 66.6125 73.5929 66.5673 73.6467 66.5186C73.7005 66.4699 73.7363 66.4212 73.7543 66.3724C73.7632 66.3585 73.7605 66.339 73.7462 66.314C73.7336 66.2903 73.7274 66.2646 73.7274 66.2368C73.7274 66.2159 73.7363 66.1929 73.7543 66.1679C73.7722 66.1442 73.808 66.1324 73.8618 66.1324C73.9156 66.1324 73.9668 66.1581 74.0152 66.2096C74.0654 66.2625 74.0905 66.3377 74.0905 66.4351C74.0905 66.4559 74.0905 66.4768 74.0905 66.4977C74.0905 66.5186 74.086 66.5395 74.077 66.5603C74.0501 66.6438 74.0232 66.696 73.9963 66.7169C73.9874 66.7378 73.9694 66.7586 73.9425 66.7795C73.9156 66.8004 73.8887 66.8282 73.8618 66.863C73.7991 66.9187 73.7112 66.9897 73.5982 67.076C73.4871 67.1636 73.366 67.2402 73.2351 67.3056C73.106 67.3724 72.9876 67.4058 72.88 67.4058ZM71.9924 65.3287C72.0193 65.3356 72.0462 65.3391 72.0731 65.3391C72.1 65.3391 72.1269 65.3391 72.1538 65.3391C72.2076 65.3391 72.2587 65.337 72.3071 65.3328C72.3573 65.3301 72.4093 65.3252 72.4631 65.3182C72.5348 65.3113 72.6039 65.3057 72.6702 65.3015C72.7384 65.2988 72.7949 65.2974 72.8397 65.2974H73.028C73.019 65.2834 73.0145 65.2626 73.0145 65.2347C73.0145 65.1443 73.0818 65.0608 73.2163 64.9842C73.1983 64.9077 73.1804 64.8242 73.1625 64.7337C73.1445 64.6433 73.0997 64.5667 73.028 64.5041L72.9069 64.4728C72.88 64.4728 72.8576 64.4693 72.8397 64.4623C72.6424 64.4693 72.49 64.5333 72.3824 64.6544C72.2748 64.7769 72.1896 64.9007 72.1269 65.026C72.1 65.0677 72.0794 65.1109 72.065 65.1554C72.0525 65.2013 72.0282 65.2591 71.9924 65.3287ZM74.494 68.0634C74.4581 68.0842 74.4133 68.0947 74.3595 68.0947C74.2339 68.0947 74.1712 68.0494 74.1712 67.959C74.1712 67.9242 74.1936 67.8824 74.2384 67.8337C74.364 67.7294 74.4536 67.6528 74.5074 67.6041C74.5612 67.5554 74.6823 67.5171 74.8705 67.4893C74.8885 67.4893 74.9019 67.4879 74.9109 67.4851C74.9199 67.4809 74.9288 67.4788 74.9378 67.4788C74.9916 67.4232 75.0544 67.3466 75.1261 67.2492C75.1978 67.1518 75.2579 67.0488 75.3063 66.9403C75.3565 66.8331 75.3682 66.7447 75.3413 66.6751C75.3323 66.6473 75.3251 66.6209 75.3198 66.5958C75.3162 66.5722 75.3144 66.5499 75.3144 66.529C75.3144 66.4246 75.3476 66.3411 75.4139 66.2785C75.482 66.2159 75.5206 66.1567 75.5296 66.1011L75.6103 66.0489C75.6192 66.0419 75.6237 66.0364 75.6237 66.0322C75.6237 66.0294 75.6237 66.028 75.6237 66.028C75.6237 66.0002 75.5878 65.9723 75.5161 65.9445C75.4444 65.9167 75.4085 65.8784 75.4085 65.8297C75.4085 65.7531 75.4354 65.6989 75.4892 65.6669C75.543 65.6362 75.5834 65.6175 75.6103 65.6105V65.4017C75.6103 65.3669 75.6147 65.3287 75.6237 65.2869C75.6327 65.2452 75.6551 65.2104 75.691 65.1825C75.673 65.1478 75.6551 65.1144 75.6372 65.0823C75.6192 65.0517 75.5968 65.0225 75.5699 64.9947C75.4534 65.0364 75.3278 65.0608 75.1933 65.0677C75.0588 65.0747 74.9288 65.0851 74.8033 65.099H74.763C74.7092 65.099 74.6661 65.083 74.6338 65.051C74.6034 65.0204 74.5881 64.9877 74.5881 64.9529C74.5881 64.9181 74.6016 64.8868 74.6285 64.859C74.6554 64.8311 74.6957 64.8137 74.7495 64.8068C74.8392 64.7929 74.9665 64.7838 75.1315 64.7796C75.2982 64.7769 75.4085 64.7476 75.4623 64.692L75.5027 64.6502C75.5385 64.6154 75.5807 64.5876 75.6291 64.5667C75.6793 64.5458 75.7358 64.5424 75.7986 64.5563L75.9734 64.598C76.1079 64.5145 76.211 64.4589 76.2827 64.431C76.3545 64.4032 76.4755 64.3545 76.6459 64.2849C76.7176 64.264 76.7669 64.2536 76.7938 64.2536C76.8745 64.2536 76.9149 64.2953 76.9149 64.3788C76.9149 64.4415 76.8987 64.511 76.8664 64.5876C76.8359 64.6641 76.8073 64.7302 76.7804 64.7859C76.8342 64.7511 76.9166 64.6954 77.0278 64.6189C77.1408 64.5424 77.2287 64.4937 77.2914 64.4728C77.3363 64.4171 77.3856 64.3719 77.4394 64.3371C77.4932 64.3023 77.5649 64.2849 77.6546 64.2849C77.7353 64.2849 77.807 64.3162 77.8698 64.3788H78.0849C78.1208 64.3649 78.1567 64.3524 78.1925 64.3413C78.2284 64.3315 78.2688 64.3266 78.3136 64.3266C78.4122 64.3266 78.5171 64.3524 78.6283 64.4039C78.7413 64.4568 78.8022 64.511 78.8112 64.5667C78.856 64.5946 78.9009 64.6168 78.9457 64.6335C78.9905 64.6516 79.0264 64.6781 79.0533 64.7128C79.0892 64.7616 79.1044 64.8103 79.099 64.859C79.0954 64.9077 79.0937 64.9599 79.0937 65.0155C79.0937 65.099 79.0937 65.2048 79.0937 65.3328C79.0937 65.4623 79.0802 65.5792 79.0533 65.6836C79.0264 65.7879 78.9771 65.8471 78.9054 65.861H78.8247C78.7081 66.0071 78.5512 66.1289 78.3539 66.2263C78.1567 66.3237 77.9056 66.3724 77.6008 66.3724C77.5739 66.3724 77.5559 66.369 77.547 66.362C77.5201 66.369 77.4797 66.3724 77.4259 66.3724C77.2825 66.3724 77.1811 66.3425 77.122 66.2827C77.0646 66.2242 77.0269 66.1533 77.009 66.0698C76.9642 65.9863 76.9418 65.9097 76.9418 65.8401C76.9418 65.7357 76.9687 65.6383 77.0224 65.5479C77.0673 65.4435 77.1318 65.3565 77.2161 65.2869C77.3022 65.2173 77.4214 65.1825 77.5739 65.1825C77.6546 65.1825 77.7397 65.193 77.8294 65.2139C77.937 65.2347 77.9908 65.2834 77.9908 65.36C77.9908 65.4017 77.9684 65.4379 77.9236 65.4685C77.8787 65.5005 77.816 65.5131 77.7353 65.5061H77.6815C77.5559 65.5061 77.4573 65.5583 77.3856 65.6627V65.8088C77.3856 65.8227 77.3829 65.845 77.3775 65.8756C77.3739 65.9076 77.3721 65.9375 77.3721 65.9654C77.4259 66.021 77.4842 66.0524 77.547 66.0593C77.6546 66.0454 77.7729 66.028 77.902 66.0071C78.0329 65.9863 78.1208 65.9689 78.1656 65.9549C78.1567 65.9341 78.1522 65.9062 78.1522 65.8714C78.1522 65.774 78.2284 65.6975 78.3808 65.6418C78.3539 65.607 78.3405 65.5792 78.3405 65.5583C78.3405 65.4748 78.4122 65.3948 78.5557 65.3182C78.466 65.2765 78.4212 65.2173 78.4212 65.1408C78.4212 65.099 78.4301 65.0712 78.4481 65.0573C78.466 65.0434 78.4795 65.026 78.4884 65.0051C78.4436 64.9634 78.4212 64.9216 78.4212 64.8798C78.4212 64.859 78.4257 64.8395 78.4346 64.8214C78.4436 64.8047 78.4481 64.7929 78.4481 64.7859C78.4481 64.772 78.4302 64.7581 78.3943 64.7442C78.3584 64.7302 78.2777 64.7128 78.1522 64.692C78.1163 64.6989 78.076 64.7094 78.0312 64.7233C77.9863 64.7372 77.9415 64.7442 77.8967 64.7442C77.8249 64.7442 77.7666 64.7268 77.7218 64.692C77.686 64.6989 77.6519 64.7038 77.6196 64.7066C77.5891 64.7108 77.5604 64.7198 77.5335 64.7337C77.4618 64.7963 77.356 64.859 77.2161 64.9216C77.078 64.9842 76.9418 65.0503 76.8073 65.1199C76.7176 65.1895 76.6414 65.266 76.5786 65.3495C76.5159 65.4331 76.4576 65.5235 76.4038 65.6209C76.4217 65.6627 76.3993 65.7427 76.3365 65.861C76.2738 65.9793 76.2334 66.0628 76.2155 66.1115C76.1886 66.2855 76.1724 66.4246 76.1671 66.529C76.1635 66.6334 76.1617 66.7343 76.1617 66.8317C76.1617 66.9291 76.1482 67.0544 76.1213 67.2075C76.202 67.2214 76.28 67.2367 76.3554 67.2534C76.4325 67.2715 76.5159 67.284 76.6055 67.291L76.619 67.3014C76.6907 67.3014 76.7445 67.3292 76.7804 67.3849C76.8969 67.3919 76.9552 67.4406 76.9552 67.531C76.9552 67.5658 76.9373 67.6006 76.9014 67.6354C76.8655 67.6702 76.8117 67.6841 76.74 67.6772C76.7041 67.6772 76.6208 67.6681 76.4899 67.65C76.3607 67.6333 76.22 67.6111 76.0675 67.5832C76.0317 67.5832 75.9958 67.5853 75.9599 67.5895C75.9241 67.5923 75.8882 67.5971 75.8524 67.6041C75.8075 67.6806 75.7268 67.7189 75.6103 67.7189H75.543C75.4534 67.7537 75.3655 67.7885 75.2794 67.8233C75.1951 67.8581 75.0947 67.879 74.9781 67.8859C74.8885 67.8859 74.8212 67.888 74.7764 67.8922C74.7316 67.895 74.7002 67.8998 74.6823 67.9068C74.6823 67.9068 74.6733 67.9138 74.6554 67.9277C74.6464 67.9346 74.6347 67.9506 74.6204 67.9757C74.6078 67.9993 74.5657 68.0286 74.494 68.0634ZM79.7365 67.9381C79.6289 67.9381 79.4971 67.9193 79.3411 67.8817C79.1833 67.8428 79.0461 67.7885 78.9296 67.7189C78.813 67.6493 78.7547 67.5693 78.7547 67.4788C78.7547 67.4162 78.7861 67.3571 78.8489 67.3014C78.7771 67.2597 78.7413 67.2005 78.7413 67.124C78.7413 66.9291 78.822 66.767 78.9834 66.6376C79.1448 66.5095 79.3402 66.4142 79.5698 66.3516C79.7975 66.2889 80.0055 66.2576 80.1938 66.2576H80.3821C80.409 66.2576 80.4359 66.2576 80.4628 66.2576C80.4897 66.2576 80.5211 66.2646 80.5569 66.2785C80.6376 66.2924 80.6914 66.3063 80.7183 66.3203C80.8349 66.362 80.9425 66.4156 81.0411 66.481C81.1398 66.5478 81.1891 66.6264 81.1891 66.7169C81.1891 66.8143 81.1173 66.9062 80.9739 66.9924C80.8304 67.0801 80.7183 67.1309 80.6376 67.1448C80.6107 67.1518 80.5749 67.1553 80.53 67.1553C80.4314 67.1553 80.3821 67.1205 80.3821 67.0509C80.3821 66.9465 80.4404 66.87 80.5569 66.8213L80.5838 66.8108C80.5838 66.6786 80.5569 66.5986 80.5031 66.5708C80.4493 66.5568 80.409 66.5499 80.3821 66.5499C80.2835 66.5499 80.1535 66.5638 79.9921 66.5916C79.8307 66.6195 79.6899 66.6647 79.5698 66.7273C79.4478 66.79 79.3868 66.8769 79.3868 66.9883C79.3868 67.0439 79.3895 67.117 79.3949 67.2075C79.3985 67.2979 79.4227 67.3766 79.4675 67.4434C79.5124 67.5088 79.5886 67.5415 79.6962 67.5415C79.7769 67.5415 79.8558 67.5519 79.9329 67.5728C80.0082 67.5937 80.0817 67.6111 80.1535 67.625L80.3552 67.6145C80.409 67.5937 80.4789 67.5658 80.565 67.531C80.6493 67.4962 80.7677 67.4788 80.9201 67.4788H81.0008C81.0097 67.4649 81.0232 67.451 81.0411 67.4371C81.0949 67.3327 81.1846 67.2548 81.3101 67.2033C81.4356 67.1504 81.5522 67.0996 81.6598 67.0509C81.6957 66.9883 81.7136 66.8595 81.7136 66.6647C81.7136 66.5464 81.6535 66.4351 81.5334 66.3307C81.4114 66.2263 81.2653 66.1289 81.0949 66.0384C80.8618 65.9619 80.6242 65.8833 80.3821 65.8025C80.14 65.7232 79.9365 65.614 79.7715 65.4748C79.6047 65.3356 79.5213 65.1408 79.5213 64.8903C79.5213 64.765 79.5823 64.6481 79.7043 64.5396C79.8244 64.4324 79.9697 64.3385 80.14 64.2578C80.3104 64.1784 80.4789 64.1179 80.6457 64.0761C80.8107 64.0344 80.938 64.0135 81.0277 64.0135C81.207 64.0135 81.398 64.0288 81.6006 64.0594C81.8015 64.0915 81.9718 64.1527 82.1117 64.2431C82.2498 64.3336 82.3188 64.4728 82.3188 64.6607C82.3188 64.8346 82.2363 64.9613 82.0713 65.0406C81.9046 65.1213 81.736 65.1686 81.5656 65.1825C81.5387 65.1895 81.5118 65.1944 81.4849 65.1972C81.458 65.2013 81.4312 65.2034 81.4043 65.2034C81.3146 65.2034 81.2366 65.1839 81.1702 65.145C81.1021 65.1074 81.0456 65.0608 81.0008 65.0051L80.9739 64.9738C80.929 64.932 80.9066 64.8833 80.9066 64.8277C80.9066 64.7581 80.9604 64.7233 81.068 64.7233C81.1129 64.7233 81.1577 64.7316 81.2025 64.7483C81.2473 64.7664 81.2877 64.7963 81.3236 64.8381L81.3505 64.8694C81.3505 64.8694 81.3505 64.8708 81.3505 64.8736C81.3505 64.8778 81.3549 64.8798 81.3639 64.8798L81.3774 64.8903C81.4132 64.8903 81.4401 64.8868 81.4581 64.8798C81.5298 64.859 81.5997 64.8137 81.6679 64.7442C81.7342 64.6746 81.7674 64.6119 81.7674 64.5563C81.7674 64.5215 81.7226 64.4763 81.6329 64.4206C81.5432 64.3649 81.4446 64.3371 81.337 64.3371C81.2563 64.3371 81.1308 64.3559 80.9604 64.3935C80.7901 64.4324 80.687 64.4902 80.6511 64.5667C80.6242 64.6224 80.6 64.6711 80.5785 64.7128C80.5551 64.7546 80.53 64.7929 80.5031 64.8277C80.5031 64.8346 80.5014 64.8451 80.4978 64.859C80.4924 64.8729 80.4897 64.8868 80.4897 64.9007C80.4897 64.9634 80.5058 65.0274 80.5381 65.0928C80.5686 65.1596 80.6018 65.2417 80.6376 65.3391C80.6466 65.3669 80.6511 65.3892 80.6511 65.4059C80.6511 65.424 80.6511 65.44 80.6511 65.4539C80.7408 65.5026 80.8349 65.5534 80.9335 65.6063C81.0322 65.6578 81.1263 65.7044 81.216 65.7462C81.5029 65.8366 81.7584 65.9494 81.9826 66.0844C82.2067 66.2208 82.3188 66.4316 82.3188 66.7169C82.3188 66.863 82.2829 66.9744 82.2112 67.0509C82.1395 67.1274 82.0543 67.1935 81.9557 67.2492C81.9019 67.3049 81.8284 67.3571 81.7351 67.4058C81.6401 67.4545 81.5163 67.5171 81.3639 67.5937C81.337 67.6285 81.3146 67.6584 81.2967 67.6834C81.2787 67.7071 81.2608 67.7259 81.2429 67.7398C81.207 67.7885 81.1649 67.8303 81.1164 67.865C81.0662 67.8998 80.9784 67.9172 80.8528 67.9172H80.4493C80.4225 67.9242 80.3956 67.9277 80.3687 67.9277C80.3418 67.9277 80.3149 67.9277 80.288 67.9277H80.1535C80.0907 67.9277 80.0235 67.9298 79.9517 67.9339C79.88 67.9367 79.8083 67.9381 79.7365 67.9381ZM90.6843 68.3347C90.3436 68.3347 89.9867 68.316 89.6138 68.2784C89.2425 68.2394 88.8776 68.1747 88.519 68.0842C88.2859 68.0564 88.0303 68.0147 87.7524 67.959C87.4744 67.9033 87.2207 67.8198 86.9911 67.7085C86.7634 67.5971 86.5912 67.4545 86.4747 67.2805C86.4119 67.1901 86.3554 67.0982 86.3052 67.005C86.2568 66.9103 86.1788 66.8317 86.0712 66.7691C85.8919 66.7134 85.7771 66.6403 85.7269 66.5499C85.6785 66.4594 85.6543 66.3585 85.6543 66.2472C85.6543 66.1985 85.656 66.1477 85.6596 66.0948C85.665 66.0433 85.6677 65.9897 85.6677 65.9341V65.8714C85.5691 65.8088 85.5198 65.7427 85.5198 65.6731C85.5198 65.6035 85.5601 65.5305 85.6408 65.4539V65.4435C85.6408 65.3391 85.6247 65.2417 85.5924 65.1512C85.5619 65.0608 85.5467 64.9668 85.5467 64.8694C85.5467 64.8346 85.5485 64.8012 85.552 64.7692C85.5574 64.7386 85.5646 64.7094 85.5736 64.6815C85.6184 64.5006 85.6677 64.3176 85.7215 64.1325C85.7753 63.9488 85.8156 63.77 85.8425 63.596C85.8605 63.5055 85.8981 63.4339 85.9555 63.381C86.0147 63.3295 86.0802 63.2794 86.1519 63.2307C86.2236 63.182 86.2998 63.088 86.3805 62.9489C86.4612 62.8097 86.5509 62.6601 86.6495 62.5C86.7481 62.34 86.8512 62.2043 86.9588 62.093C86.9499 61.9468 86.9768 61.8334 87.0395 61.7527C87.1023 61.6734 87.2458 61.6337 87.4699 61.6337H87.5237C87.5416 61.5293 87.5954 61.4598 87.6851 61.425C87.7748 61.3902 87.8555 61.3693 87.9272 61.3623L88.2903 61.1223C88.6759 60.8648 89.0659 60.6992 89.4604 60.6254C89.8549 60.5531 90.2943 60.5169 90.7785 60.5169H90.8457C91.1416 60.5169 91.4733 60.5496 91.841 60.615C92.2086 60.6818 92.5601 60.7862 92.8954 60.9281C93.2325 61.0715 93.5105 61.2614 93.7293 61.498C93.9498 61.7346 94.0601 62.0199 94.0601 62.3539C94.0601 62.7506 93.948 63.088 93.7239 63.3664C93.4997 63.6447 93.1859 63.8848 92.7824 64.0866L92.7555 64.1075C92.6928 64.1562 92.621 64.1979 92.5403 64.2327C92.4596 64.2675 92.37 64.2849 92.2713 64.2849C92.2086 64.2849 92.1548 64.2793 92.11 64.2682C92.0651 64.2585 92.0068 64.2536 91.9351 64.2536C91.8454 64.2536 91.7531 64.2689 91.6581 64.2995C91.5648 64.3315 91.4689 64.3475 91.3702 64.3475C91.2178 64.3475 90.9981 64.3211 90.7112 64.2682C90.4243 64.2167 90.1777 64.1353 89.9715 64.024C89.8011 63.9544 89.655 63.8743 89.5331 63.7839C89.4129 63.6934 89.3528 63.596 89.3528 63.4916C89.3528 63.429 89.3797 63.3664 89.4335 63.3038H89.447C89.4111 63.2481 89.3752 63.1994 89.3394 63.1576C89.3035 63.1159 89.2856 63.0602 89.2856 62.9906C89.2856 62.8306 89.3501 62.6754 89.4793 62.5251C89.6102 62.3762 89.7653 62.2426 89.9446 62.1243C90.1598 61.9016 90.4871 61.7659 90.9264 61.7172C90.9623 61.7103 90.9937 61.7068 91.0206 61.7068C91.0475 61.7068 91.0744 61.7068 91.1012 61.7068H91.1416C91.1595 61.7068 91.1775 61.7047 91.1954 61.7005C91.2133 61.6977 91.2313 61.6963 91.2492 61.6963C91.4375 61.6963 91.6276 61.7186 91.8194 61.7631C92.0131 61.8091 92.1745 61.8842 92.3036 61.9886C92.4345 62.093 92.5 62.2356 92.5 62.4165C92.5 62.4722 92.4704 62.5745 92.4112 62.7234C92.3538 62.8737 92.2579 63.0115 92.1234 63.1367C91.9889 63.262 91.8006 63.3246 91.5585 63.3246C91.424 63.3246 91.3075 63.2877 91.2088 63.214C91.1102 63.1416 91.0609 63.0532 91.0609 62.9489C91.0609 62.8723 91.0878 62.818 91.1416 62.786C91.1954 62.7554 91.2537 62.7401 91.3164 62.7401C91.3792 62.7401 91.4348 62.7554 91.4832 62.786C91.5334 62.818 91.5585 62.8654 91.5585 62.928C91.6751 62.921 91.7782 62.8563 91.8679 62.7339C91.9575 62.6128 92.0024 62.507 92.0024 62.4165C92.0024 62.2982 91.9324 62.2161 91.7925 62.1702C91.6545 62.1257 91.5182 62.0999 91.3837 62.093C91.3478 62.1069 91.312 62.1138 91.2761 62.1138C91.2492 62.1138 91.2241 62.1104 91.2008 62.1034C91.1793 62.0965 91.155 62.093 91.1282 62.093C91.1012 62.093 91.0744 62.093 91.0475 62.093C91.0206 62.093 90.9937 62.0965 90.9668 62.1034C90.7516 62.1521 90.5319 62.2495 90.3077 62.3957C90.2181 62.4931 90.1553 62.6163 90.1194 62.7652C90.0836 62.9155 90.0612 63.0846 90.0522 63.2724L90.0791 63.2933C90.1598 63.3559 90.2001 63.4255 90.2001 63.5021C90.2001 63.5229 90.1912 63.5612 90.1732 63.6169C90.236 63.6865 90.3391 63.7491 90.4826 63.8048C90.5722 63.8326 90.6637 63.8549 90.7569 63.8716C90.852 63.8897 90.9354 63.8987 91.0071 63.8987C91.1775 63.8987 91.3389 63.8695 91.4913 63.811C91.6437 63.7512 91.7934 63.6913 91.9405 63.6315C92.0893 63.573 92.231 63.5438 92.3655 63.5438H92.4596C92.5045 63.4812 92.5583 63.4325 92.621 63.3977C92.6838 63.3629 92.751 63.3316 92.8228 63.3038L92.8497 63.2933V63.262C92.8228 63.1715 92.838 63.095 92.8954 63.0324C92.9546 62.9697 93.038 62.928 93.1456 62.9071C93.1456 62.8027 93.2083 62.7227 93.3338 62.667H93.3473C93.3473 62.4235 93.3177 62.2426 93.2585 62.1243C93.2011 62.006 93.1456 61.91 93.0918 61.8362C93.038 61.7638 93.0066 61.6859 92.9976 61.6024C92.9976 61.5606 93.0021 61.5328 93.0111 61.5189C92.8766 61.4284 92.7241 61.3589 92.5538 61.3101C92.3834 61.2614 92.2265 61.1988 92.0831 61.1223C92.0472 61.1014 92.0203 61.077 92.0024 61.0492C91.6168 60.9587 91.2223 60.9066 90.8188 60.8926C90.5498 60.8926 90.2647 60.9274 89.9634 60.997C89.664 61.0666 89.3752 61.155 89.0973 61.2621C88.8193 61.3707 88.5862 61.4911 88.3979 61.6233C88.3621 61.6511 88.3235 61.6699 88.2823 61.6796C88.2428 61.6908 88.2052 61.7033 88.1693 61.7172L87.9944 61.8529C87.9675 61.9016 87.9182 61.9434 87.8465 61.9782C87.2727 62.4722 86.8961 63.0268 86.7168 63.6419C86.5374 64.2585 86.4478 64.9529 86.4478 65.7253C86.4478 66.2542 86.6558 66.6765 87.0718 66.9924C87.4896 67.3098 88.0034 67.5484 88.6131 67.7085L88.6938 67.7189C88.7655 67.7328 88.8104 67.7467 88.8283 67.7607C89.4201 67.8859 90.0387 67.9485 90.6843 67.9485C91.2133 67.9485 91.7127 67.8532 92.1826 67.6626C92.6542 67.4705 93.0918 67.2527 93.4952 67.0091C93.6566 66.9117 93.7687 66.8122 93.8315 66.7106C93.8942 66.6104 93.9256 66.4907 93.9256 66.3516C93.9256 66.3446 93.9229 66.3377 93.9175 66.3307C93.914 66.3237 93.9122 66.3168 93.9122 66.3098V66.2472C93.9122 66.1219 93.9391 66.0259 93.9929 65.9591C94.0467 65.8937 94.1049 65.861 94.1677 65.861C94.2663 65.861 94.3336 65.9236 94.3694 66.0489C94.3874 66.0489 94.4008 66.0593 94.4098 66.0802C94.4367 66.1846 94.4501 66.2855 94.4501 66.3829C94.4501 66.6056 94.3802 66.7913 94.2403 66.9403C94.1023 67.0906 93.9301 67.2249 93.7239 67.3432C93.5177 67.4615 93.3025 67.5797 93.0783 67.698C92.7466 67.8859 92.3834 68.039 91.9889 68.1573C91.5944 68.2756 91.1595 68.3347 90.6843 68.3347ZM95.3109 67.2701H95.163C95.0285 67.2701 94.9209 67.2297 94.8402 67.149C94.7595 67.0697 94.703 66.9778 94.6707 66.8735C94.6402 66.7691 94.625 66.6751 94.625 66.5916C94.625 66.5012 94.6519 66.426 94.7057 66.3662C94.7595 66.3077 94.8222 66.2472 94.894 66.1846L94.8805 66.1741C94.8088 66.1185 94.7729 66.0593 94.7729 65.9967C94.7729 65.9132 94.8151 65.8332 94.8994 65.7566C94.9854 65.6801 95.0598 65.614 95.1226 65.5583C95.275 65.4191 95.4678 65.3252 95.7009 65.2765C95.9341 65.2278 96.1627 65.2034 96.3869 65.2034C96.4407 65.2034 96.5527 65.2222 96.7231 65.2598C96.8934 65.2988 97.0504 65.3461 97.1938 65.4017C97.1938 65.3391 97.1911 65.2779 97.1857 65.218C97.1822 65.1596 97.1669 65.0956 97.14 65.026C97.1311 64.9912 97.1194 64.9529 97.105 64.9112C97.0925 64.8694 97.0862 64.8277 97.0862 64.7859C97.0862 64.7372 97.0997 64.692 97.1266 64.6502C97.019 64.6154 96.9652 64.5528 96.9652 64.4623C96.9652 64.2118 96.8531 64.0866 96.6289 64.0866C96.351 64.0866 96.1044 64.1075 95.8892 64.1492C95.7727 64.191 95.674 64.2515 95.5933 64.3308C95.5126 64.4115 95.414 64.5215 95.2975 64.6607C95.2795 64.6885 95.2706 64.7094 95.2706 64.7233C95.2885 64.7511 95.3037 64.7769 95.3163 64.8005C95.3306 64.8256 95.3468 64.8485 95.3647 64.8694C95.4275 64.9042 95.4992 64.9216 95.5799 64.9216C95.5799 64.9216 95.5996 64.9042 95.6391 64.8694C95.6803 64.8346 95.7009 64.8137 95.7009 64.8068V64.765C95.6651 64.7302 95.6471 64.6955 95.6471 64.6607C95.6471 64.5772 95.7144 64.5354 95.8489 64.5354C95.9116 64.5354 95.9672 64.5528 96.0157 64.5876C96.0659 64.6224 96.091 64.6815 96.091 64.765V64.8068C96.091 64.8764 96.0372 64.9634 95.9296 65.0677C95.822 65.1721 95.7054 65.2243 95.5799 65.2243C95.5351 65.2243 95.4875 65.2187 95.4373 65.2076C95.3889 65.1979 95.3423 65.1895 95.2975 65.1825C95.2616 65.1825 95.2257 65.1756 95.1899 65.1617C95.154 65.1478 95.1136 65.1199 95.0688 65.0782C95.015 65.0434 94.9675 65.0016 94.9263 64.9529C94.8868 64.9042 94.8671 64.8485 94.8671 64.7859C94.8581 64.7511 94.8465 64.7212 94.8321 64.6961C94.8196 64.6725 94.8133 64.6572 94.8133 64.6502C94.8133 64.6154 94.8196 64.5855 94.8321 64.5605C94.8465 64.5368 94.8581 64.5145 94.8671 64.4937C94.8312 64.4449 94.8312 64.3997 94.8671 64.358C94.9478 64.2188 95.0643 64.1109 95.2168 64.0344C95.3692 63.9578 95.5351 63.9022 95.7144 63.8674C95.8578 63.8117 96.0076 63.7769 96.1636 63.763C96.3214 63.7491 96.4944 63.7421 96.6827 63.7421C96.9159 63.7421 97.0566 63.763 97.105 63.8048C97.1553 63.8465 97.2207 63.9335 97.3014 64.0657C97.4718 64.1283 97.5946 64.1924 97.6699 64.2578C97.747 64.3246 97.799 64.4484 97.8259 64.6293C97.8528 64.8103 97.8618 64.9947 97.8528 65.1825C97.8439 65.3704 97.8546 65.5527 97.8851 65.7295C97.9174 65.9076 97.9918 66.0802 98.1084 66.2472C98.1173 66.2681 98.1398 66.2994 98.1756 66.3411C98.2563 66.3063 98.337 66.2715 98.4177 66.2368C98.4984 66.202 98.5836 66.1811 98.6732 66.1741H98.7136C98.7764 66.1741 98.823 66.1894 98.8535 66.2201C98.8857 66.2521 98.9019 66.2855 98.9019 66.3203C98.9019 66.3481 98.8884 66.3773 98.8615 66.4079C98.8346 66.4399 98.7943 66.4594 98.7405 66.4664C98.6867 66.4733 98.6015 66.5047 98.485 66.5603C98.3684 66.616 98.2563 66.6577 98.1487 66.6856C98.0322 66.7273 97.929 66.7774 97.8394 66.8359C97.7497 66.8957 97.6556 66.9744 97.5569 67.0718C97.5032 67.1135 97.4449 67.1344 97.3821 67.1344C97.2386 67.1344 97.1804 67.0683 97.2073 66.9361C97.2162 66.9222 97.227 66.8735 97.2395 66.79C97.2539 66.7065 97.2655 66.616 97.2745 66.5186C97.2207 66.5812 97.1463 66.6417 97.0513 66.7002C96.958 66.76 96.8262 66.8247 96.6558 66.8943C96.6379 66.9013 96.6038 66.9131 96.5536 66.9298C96.5052 66.9479 96.4675 66.9604 96.4407 66.9674C96.351 66.9952 96.2658 67.0279 96.1851 67.0655C96.1044 67.1045 96.0237 67.1518 95.943 67.2075C95.9072 67.2353 95.8641 67.2562 95.8139 67.2701C95.7655 67.284 95.7009 67.291 95.6202 67.291C95.5844 67.291 95.5395 67.2889 95.4857 67.2847C95.4319 67.2819 95.3737 67.2771 95.3109 67.2701ZM95.7816 66.7378L96.0372 66.7482C96.082 66.7482 96.1134 66.7447 96.1313 66.7378C96.3644 66.6473 96.5438 66.5826 96.6693 66.5436C96.7948 66.506 96.8908 66.4504 96.9571 66.3766C97.0252 66.3043 97.0862 66.1741 97.14 65.9863C97.14 65.9723 97.1418 65.9563 97.1454 65.9382C97.1508 65.9215 97.1535 65.8993 97.1535 65.8714C97.1535 65.781 97.14 65.7218 97.1131 65.694C96.9966 65.5966 96.8576 65.5479 96.6962 65.5479C96.6065 65.5479 96.5187 65.5548 96.4326 65.5687C96.3483 65.5827 96.2658 65.5861 96.1851 65.5792C96.1672 65.6696 96.1044 65.7149 95.9968 65.7149H95.9296C95.8937 65.7914 95.8309 65.8297 95.7413 65.8297H95.7009C95.6651 65.9271 95.6023 66.0085 95.5126 66.0739C95.423 66.1407 95.3782 66.2298 95.3782 66.3411V66.4142C95.4678 66.4838 95.5126 66.5603 95.5126 66.6438C95.5664 66.6577 95.6131 66.6765 95.6525 66.7002C95.6938 66.7252 95.7323 66.7378 95.7682 66.7378H95.7816ZM98.8723 68.0634C98.8364 68.0842 98.7916 68.0947 98.7378 68.0947C98.6123 68.0947 98.5495 68.0494 98.5495 67.959C98.5495 67.9242 98.5719 67.8824 98.6168 67.8337C98.7423 67.7294 98.8319 67.6528 98.8857 67.6041C98.9395 67.5554 99.0606 67.5171 99.2489 67.4893C99.2668 67.4893 99.2803 67.4879 99.2892 67.4851C99.2982 67.4809 99.3072 67.4788 99.3161 67.4788C99.3699 67.4232 99.4327 67.3466 99.5044 67.2492C99.5761 67.1518 99.6371 67.0488 99.6873 66.9403C99.7357 66.8331 99.7465 66.7447 99.7196 66.6751C99.7106 66.6473 99.7044 66.6209 99.7008 66.5958C99.6954 66.5722 99.6927 66.5499 99.6927 66.529C99.6927 66.4246 99.7268 66.3411 99.7949 66.2785C99.8613 66.2159 99.8989 66.1567 99.9079 66.1011L99.9886 66.0489C99.9976 66.0419 100.002 66.0364 100.002 66.0322C100.002 66.0294 100.002 66.028 100.002 66.028C100.002 66.0002 99.9662 65.9723 99.8944 65.9445C99.8227 65.9167 99.7869 65.8784 99.7869 65.8297C99.7869 65.7531 99.8138 65.6989 99.8676 65.6669C99.9213 65.6362 99.9617 65.6175 99.9886 65.6105V65.4017C99.9886 65.3669 99.9931 65.3287 100.002 65.2869C100.011 65.2452 100.033 65.2104 100.069 65.1825C100.051 65.1478 100.033 65.1144 100.015 65.0823C99.9976 65.0517 99.9751 65.0225 99.9482 64.9947C99.8317 65.0364 99.7062 65.0608 99.5717 65.0677C99.4372 65.0747 99.3072 65.0851 99.1816 65.099H99.1413C99.0875 65.099 99.0453 65.083 99.0149 65.051C98.9826 65.0204 98.9664 64.9877 98.9664 64.9529C98.9664 64.9181 98.9799 64.8868 99.0068 64.859C99.0337 64.8311 99.074 64.8137 99.1278 64.8068C99.2175 64.7929 99.3457 64.7838 99.5125 64.7796C99.6775 64.7769 99.7869 64.7476 99.8407 64.692L99.881 64.6502C99.9169 64.6154 99.9599 64.5876 100.01 64.5667C100.059 64.5458 100.114 64.5424 100.177 64.5563L100.352 64.598C100.486 64.5145 100.589 64.4589 100.661 64.431C100.733 64.4032 100.854 64.3545 101.024 64.2849C101.096 64.264 101.145 64.2536 101.172 64.2536C101.253 64.2536 101.293 64.2953 101.293 64.3788C101.293 64.4415 101.278 64.511 101.247 64.5876C101.215 64.6641 101.186 64.7302 101.159 64.7859C101.212 64.7511 101.296 64.6954 101.409 64.6189C101.52 64.5424 101.607 64.4937 101.67 64.4728C101.715 64.4171 101.764 64.3719 101.818 64.3371C101.872 64.3023 101.943 64.2849 102.033 64.2849C102.114 64.2849 102.185 64.3162 102.248 64.3788H102.463C102.499 64.3649 102.535 64.3524 102.571 64.3413C102.607 64.3315 102.647 64.3266 102.692 64.3266C102.791 64.3266 102.896 64.3524 103.009 64.4039C103.121 64.4568 103.181 64.511 103.19 64.5667C103.234 64.5946 103.279 64.6168 103.324 64.6335C103.369 64.6516 103.405 64.6781 103.432 64.7128C103.467 64.7616 103.484 64.8103 103.48 64.859C103.475 64.9077 103.472 64.9599 103.472 65.0155C103.472 65.099 103.472 65.2048 103.472 65.3328C103.472 65.4623 103.459 65.5792 103.432 65.6836C103.405 65.7879 103.355 65.8471 103.284 65.861H103.203C103.086 66.0071 102.93 66.1289 102.732 66.2263C102.535 66.3237 102.284 66.3724 101.979 66.3724C101.952 66.3724 101.934 66.369 101.925 66.362C101.898 66.369 101.858 66.3724 101.804 66.3724C101.661 66.3724 101.56 66.3425 101.503 66.2827C101.444 66.2242 101.405 66.1533 101.387 66.0698C101.342 65.9863 101.32 65.9097 101.32 65.8401C101.32 65.7357 101.347 65.6383 101.401 65.5479C101.446 65.4435 101.511 65.3565 101.597 65.2869C101.681 65.2173 101.8 65.1825 101.952 65.1825C102.033 65.1825 102.118 65.193 102.208 65.2139C102.315 65.2347 102.369 65.2834 102.369 65.36C102.369 65.4017 102.347 65.4379 102.302 65.4685C102.257 65.5005 102.194 65.5131 102.114 65.5061H102.06C101.934 65.5061 101.836 65.5583 101.764 65.6627V65.8088C101.764 65.8227 101.762 65.845 101.759 65.8756C101.753 65.9076 101.75 65.9375 101.75 65.9654C101.804 66.021 101.863 66.0524 101.925 66.0593C102.033 66.0454 102.152 66.028 102.283 66.0071C102.412 65.9863 102.499 65.9689 102.544 65.9549C102.535 65.9341 102.531 65.9062 102.531 65.8714C102.531 65.774 102.607 65.6975 102.759 65.6418C102.732 65.607 102.719 65.5792 102.719 65.5583C102.719 65.4748 102.791 65.3948 102.934 65.3182C102.844 65.2765 102.8 65.2173 102.8 65.1408C102.8 65.099 102.808 65.0712 102.826 65.0573C102.844 65.0434 102.858 65.026 102.867 65.0051C102.822 64.9634 102.8 64.9216 102.8 64.8798C102.8 64.859 102.804 64.8395 102.813 64.8214C102.822 64.8047 102.826 64.7929 102.826 64.7859C102.826 64.772 102.808 64.7581 102.773 64.7442C102.737 64.7302 102.656 64.7128 102.531 64.692C102.495 64.6989 102.454 64.7094 102.409 64.7233C102.365 64.7372 102.32 64.7442 102.275 64.7442C102.203 64.7442 102.145 64.7268 102.1 64.692C102.064 64.6989 102.031 64.7038 102.001 64.7066C101.968 64.7108 101.939 64.7198 101.912 64.7337C101.84 64.7963 101.735 64.859 101.597 64.9216C101.457 64.9842 101.32 65.0503 101.186 65.1199C101.096 65.1895 101.02 65.266 100.957 65.3495C100.894 65.4331 100.836 65.5235 100.782 65.6209C100.8 65.6627 100.778 65.7427 100.715 65.861C100.652 65.9793 100.612 66.0628 100.594 66.1115C100.567 66.2855 100.552 66.4246 100.548 66.529C100.543 66.6334 100.54 66.7343 100.54 66.8317C100.54 66.9291 100.527 67.0544 100.5 67.2075C100.58 67.2214 100.659 67.2367 100.736 67.2534C100.812 67.2715 100.894 67.284 100.984 67.291L100.997 67.3014C101.069 67.3014 101.123 67.3292 101.159 67.3849C101.275 67.3919 101.334 67.4406 101.334 67.531C101.334 67.5658 101.316 67.6006 101.28 67.6354C101.244 67.6702 101.19 67.6841 101.118 67.6772C101.082 67.6772 101 67.6681 100.871 67.65C100.74 67.6333 100.598 67.6111 100.446 67.5832C100.41 67.5832 100.374 67.5853 100.338 67.5895C100.302 67.5923 100.267 67.5971 100.231 67.6041C100.186 67.6806 100.105 67.7189 99.9886 67.7189H99.9213C99.8317 67.7537 99.7447 67.7885 99.6604 67.8233C99.5744 67.8581 99.473 67.879 99.3565 67.8859C99.2668 67.8859 99.1996 67.888 99.1547 67.8922C99.1099 67.895 99.0785 67.8998 99.0606 67.9068C99.0606 67.9068 99.0516 67.9138 99.0337 67.9277C99.0247 67.9346 99.014 67.9506 99.0014 67.9757C98.9871 67.9993 98.944 68.0286 98.8723 68.0634ZM107.466 68.961C107.287 68.961 107.096 68.9248 106.894 68.8525C106.693 68.7787 106.521 68.6813 106.377 68.5602C106.234 68.4377 106.148 68.3034 106.122 68.1573C106.113 68.0947 106.105 68.032 106.1 67.9694C106.096 67.9068 106.077 67.8442 106.041 67.7815C105.969 67.7259 105.904 67.6772 105.844 67.6354C105.787 67.5937 105.758 67.5276 105.758 67.4371C105.758 67.2283 105.794 67.0057 105.866 66.7691C105.938 66.5325 106.052 66.3098 106.208 66.1011C106.365 65.8923 106.574 65.7232 106.834 65.5938C107.094 65.4658 107.408 65.4017 107.776 65.4017C107.856 65.4017 107.919 65.4261 107.964 65.4748H108.072C108.206 65.4748 108.32 65.5186 108.413 65.6063C108.508 65.6926 108.585 65.7998 108.642 65.9278C108.701 66.0572 108.744 66.1825 108.771 66.3036C108.798 66.426 108.811 66.5221 108.811 66.5916C108.811 66.8143 108.715 66.9792 108.521 67.0864C108.329 67.1949 108.116 67.2805 107.883 67.3432C107.794 67.371 107.715 67.3619 107.647 67.316C107.58 67.2715 107.547 67.2214 107.547 67.1657C107.547 67.0753 107.605 67.0161 107.722 66.9883C107.839 66.9535 107.966 66.9062 108.104 66.8463C108.244 66.7879 108.314 66.703 108.314 66.5916C108.314 66.536 108.302 66.4594 108.279 66.362C108.257 66.2646 108.226 66.1672 108.185 66.0698C108.145 65.9723 108.099 65.9027 108.045 65.861C107.991 65.861 107.939 65.854 107.889 65.8401C107.84 65.8262 107.789 65.8192 107.735 65.8192C107.637 65.8192 107.518 65.8366 107.378 65.8714C107.24 65.9062 107.119 65.9584 107.015 66.028C106.912 66.0976 106.861 66.1846 106.861 66.2889C106.861 66.3377 106.863 66.3843 106.867 66.4288C106.872 66.4747 106.875 66.5186 106.875 66.5603C106.875 66.6369 106.859 66.7078 106.826 66.7733C106.796 66.8401 106.731 66.9013 106.633 66.957L106.552 66.9987C106.543 67.0405 106.536 67.0836 106.53 67.1281C106.527 67.1741 106.525 67.2179 106.525 67.2597C106.525 67.3223 106.527 67.3849 106.53 67.4475C106.536 67.5102 106.538 67.5763 106.538 67.6459C106.574 67.6946 106.615 67.7384 106.659 67.7774C106.704 67.8149 106.74 67.865 106.767 67.9277C106.839 68.1155 106.928 68.2638 107.036 68.3723C107.144 68.4795 107.31 68.5435 107.534 68.5644C107.587 68.5574 107.639 68.547 107.687 68.5331C107.737 68.5191 107.785 68.5052 107.83 68.4913C107.865 68.4774 107.901 68.4635 107.937 68.4496C107.973 68.4356 108.022 68.4252 108.085 68.4182L108.099 68.4078C108.17 68.3939 108.229 68.3869 108.273 68.3869L108.3 68.3765C108.462 68.3417 108.576 68.2916 108.642 68.2262C108.71 68.1594 108.771 68.0877 108.825 68.0112C108.879 67.9346 108.973 67.872 109.107 67.8233L109.161 67.8024C109.206 67.7815 109.246 67.7467 109.282 67.698C109.282 67.6772 109.296 67.618 109.322 67.5206C109.349 67.4232 109.383 67.3118 109.422 67.1866C109.463 67.0613 109.502 66.9444 109.538 66.8359C109.574 66.7287 109.596 66.6543 109.605 66.6125C109.632 66.5081 109.645 66.4107 109.645 66.3203C109.645 66.2228 109.645 66.1268 109.645 66.0322C109.645 65.9389 109.663 65.8471 109.699 65.7566C109.744 65.6662 109.799 65.5653 109.866 65.4539C109.934 65.3426 109.968 65.2347 109.968 65.1304C109.968 65.0886 109.964 65.0573 109.955 65.0364C109.928 64.9738 109.914 64.9077 109.914 64.8381C109.914 64.7198 109.968 64.6328 110.076 64.5772C110.085 64.5632 110.089 64.5472 110.089 64.5291C110.089 64.5124 110.094 64.4902 110.103 64.4623L110.089 64.431C109.99 64.4797 109.914 64.5041 109.86 64.5041C109.798 64.5041 109.75 64.4811 109.718 64.4352C109.687 64.3907 109.614 64.3684 109.497 64.3684C109.444 64.3684 109.399 64.3594 109.363 64.3413C109.327 64.3246 109.291 64.3023 109.255 64.2745H109.053C108.901 64.3093 108.726 64.4136 108.529 64.5876C108.484 64.6224 108.448 64.6433 108.421 64.6502C108.403 64.6781 108.394 64.6955 108.394 64.7024C108.394 64.765 108.369 64.8137 108.319 64.8485C108.271 64.8833 108.215 64.9007 108.152 64.9007C108.09 64.9007 108.031 64.8833 107.978 64.8485C107.924 64.8137 107.897 64.765 107.897 64.7024C107.897 64.5772 107.955 64.4554 108.072 64.3371C108.188 64.2188 108.332 64.1179 108.502 64.0344C108.672 63.9509 108.834 63.9057 108.986 63.8987C109.031 63.8848 109.078 63.8778 109.126 63.8778C109.176 63.8778 109.224 63.8778 109.269 63.8778C109.322 63.8778 109.363 63.8813 109.39 63.8883C109.533 63.8883 109.663 63.8897 109.78 63.8924C109.896 63.8966 110.013 63.9126 110.129 63.9405C110.156 63.8848 110.179 63.8291 110.197 63.7734C110.215 63.7178 110.224 63.6621 110.224 63.6064C110.197 63.5438 110.165 63.4882 110.129 63.4394C110.094 63.3907 110.076 63.3385 110.076 63.2829C110.076 63.2202 110.098 63.1646 110.143 63.1159C110.008 63.0532 109.941 62.9558 109.941 62.8236C109.941 62.7958 109.943 62.7693 109.947 62.7443C109.952 62.7206 109.95 62.6949 109.941 62.667C109.878 62.6114 109.829 62.5592 109.793 62.5105C109.757 62.4618 109.748 62.3991 109.766 62.3226C109.793 62.2321 109.757 62.1243 109.659 61.999C109.56 61.8738 109.436 61.7624 109.287 61.665C109.14 61.5676 108.995 61.5189 108.852 61.5189C108.762 61.5189 108.674 61.5259 108.588 61.5398C108.504 61.5537 108.421 61.5676 108.341 61.5815C108.35 61.6929 108.381 61.7534 108.435 61.7631C108.489 61.7743 108.56 61.7798 108.65 61.7798C108.722 61.7798 108.777 61.7986 108.817 61.8362C108.858 61.8752 108.879 61.919 108.879 61.9677C108.879 62.0095 108.858 62.0491 108.817 62.0867C108.777 62.1257 108.722 62.1486 108.65 62.1556C108.623 62.1626 108.596 62.166 108.569 62.166C108.542 62.166 108.52 62.166 108.502 62.166C108.251 62.166 108.076 62.0944 107.978 61.951C107.879 61.8091 107.83 61.6581 107.83 61.498C107.83 61.4215 107.879 61.3554 107.978 61.2997C107.978 61.2927 107.986 61.2823 108.004 61.2684C108.031 61.2475 108.103 61.2058 108.22 61.1431C108.336 61.0805 108.457 61.0214 108.583 60.9657C108.708 60.91 108.789 60.8822 108.825 60.8822C108.923 60.8822 109.018 60.8996 109.107 60.9344C109.197 60.9692 109.287 60.9866 109.376 60.9866C109.565 60.9866 109.69 61.0123 109.753 61.0638C109.816 61.1167 109.892 61.1431 109.981 61.1431C110.053 61.1431 110.111 61.1619 110.156 61.1995C110.201 61.2385 110.224 61.2858 110.224 61.3415C110.224 61.4528 110.261 61.5572 110.337 61.6546C110.414 61.752 110.488 61.8543 110.56 61.9615C110.632 62.07 110.667 62.1974 110.667 62.3435C110.667 62.3713 110.665 62.3991 110.659 62.427C110.656 62.4548 110.649 62.4861 110.64 62.5209C110.694 62.5835 110.735 62.7018 110.762 62.8758C110.788 63.0498 110.802 63.2202 110.802 63.3873C110.802 63.6099 110.779 63.763 110.735 63.8465C110.699 63.9022 110.674 63.9474 110.659 63.9822C110.647 64.017 110.632 64.0518 110.614 64.0866C110.649 64.1005 110.672 64.1109 110.681 64.1179C110.726 64.1318 110.766 64.1436 110.802 64.1534C110.838 64.1645 110.874 64.1701 110.909 64.1701C110.945 64.1562 110.981 64.1436 111.017 64.1325C111.053 64.1228 111.089 64.1179 111.125 64.1179C111.277 64.1179 111.44 64.1297 111.614 64.1534C111.79 64.1784 111.936 64.191 112.053 64.191C112.08 64.191 112.117 64.1805 112.166 64.1596C112.216 64.1388 112.277 64.1283 112.349 64.1283C112.367 64.1283 112.386 64.1297 112.408 64.1325C112.431 64.1367 112.456 64.1388 112.483 64.1388H112.497C112.452 64.0831 112.458 64.017 112.515 63.9405C112.575 63.8639 112.635 63.8082 112.698 63.7734C112.725 63.7595 112.752 63.7491 112.779 63.7421C112.806 63.7352 112.828 63.7282 112.846 63.7213C112.846 63.7073 112.842 63.6934 112.833 63.6795L112.819 63.6169C112.81 63.5891 112.803 63.5626 112.798 63.5376C112.794 63.5139 112.792 63.4882 112.792 63.4603C112.792 63.349 112.842 63.255 112.94 63.1785C112.967 63.1367 112.994 63.0477 113.021 62.9113C113.048 62.7763 113.072 62.6371 113.094 62.4938C113.117 62.3518 113.129 62.253 113.129 62.1974C113.129 62.0373 113.133 61.9051 113.142 61.8007C113.151 61.6963 113.241 61.5989 113.411 61.5085C113.429 61.4806 113.447 61.4507 113.465 61.4187C113.483 61.3881 113.501 61.3554 113.519 61.3206L113.572 61.1536C113.617 61.0144 113.662 60.8975 113.707 60.8029C113.752 60.7096 113.828 60.6386 113.936 60.5899C114.043 60.5412 114.218 60.5169 114.46 60.5169H114.5C114.787 60.5169 114.991 60.5983 115.111 60.7611C115.233 60.9253 115.294 61.0805 115.294 61.2266C115.294 61.3589 115.273 61.4472 115.232 61.4918C115.193 61.5377 115.097 61.5885 114.944 61.6442L114.917 61.665C114.89 61.7137 114.85 61.7624 114.796 61.8112C114.743 61.8599 114.675 61.8842 114.595 61.8842C114.46 61.8842 114.363 61.8564 114.304 61.8007C114.247 61.745 114.218 61.6859 114.218 61.6233C114.218 61.5676 114.238 61.5154 114.277 61.4667C114.318 61.418 114.37 61.3936 114.433 61.3936C114.469 61.3936 114.505 61.4041 114.541 61.425C114.595 61.3484 114.68 61.2962 114.796 61.2684V61.2266C114.796 61.1223 114.767 61.0402 114.708 60.9803C114.65 60.9219 114.581 60.8926 114.5 60.8926C114.384 60.8926 114.287 60.9532 114.21 61.0743C114.135 61.1967 114.061 61.3275 113.989 61.4667C113.855 61.8773 113.725 62.2913 113.599 62.7088C113.474 63.1263 113.411 63.5473 113.411 63.9718V64.097C113.59 64.0692 113.756 64.0323 113.909 63.9864C114.061 63.9418 114.164 63.8952 114.218 63.8465C114.272 63.7908 114.305 63.7073 114.318 63.596C114.332 63.4847 114.35 63.3803 114.371 63.2829C114.395 63.1855 114.438 63.1367 114.5 63.1367C114.563 63.1367 114.635 63.1785 114.716 63.262C114.796 63.3455 114.837 63.4394 114.837 63.5438C114.837 63.6552 114.81 63.7616 114.756 63.8632C114.702 63.9634 114.648 64.0414 114.595 64.097C114.487 64.2014 114.317 64.2849 114.084 64.3475C113.85 64.4102 113.613 64.4589 113.371 64.4937C113.335 64.8137 113.274 65.1248 113.188 65.4268C113.104 65.7302 113.061 66.0558 113.061 66.4038C113.061 66.5847 113.084 66.7517 113.129 66.9048C113.173 67.0579 113.232 67.2075 113.303 67.3536C113.357 67.3814 113.417 67.4079 113.484 67.4329C113.552 67.4566 113.631 67.4684 113.72 67.4684C113.837 67.4684 113.951 67.4246 114.062 67.3369C114.175 67.2506 114.267 67.1532 114.339 67.0446C114.411 66.9375 114.447 66.8491 114.447 66.7795C114.447 66.7099 114.444 66.6264 114.439 66.529C114.435 66.4316 114.408 66.3446 114.358 66.2681C114.309 66.1915 114.223 66.1533 114.097 66.1533C114.088 66.1533 114.057 66.1741 114.003 66.2159C113.949 66.2576 113.922 66.3168 113.922 66.3933C113.922 66.4212 113.931 66.4559 113.949 66.4977L113.962 66.5603V66.6334C113.962 66.696 113.937 66.7447 113.887 66.7795C113.839 66.8143 113.783 66.8317 113.72 66.8317C113.658 66.8317 113.599 66.8143 113.546 66.7795C113.492 66.7447 113.465 66.696 113.465 66.6334V66.623L113.451 66.5603C113.442 66.5255 113.435 66.4942 113.43 66.4664C113.426 66.4386 113.425 66.4142 113.425 66.3933C113.425 66.275 113.48 66.1407 113.591 65.9904C113.704 65.8415 113.873 65.7671 114.097 65.7671C114.348 65.7671 114.534 65.8206 114.654 65.9278C114.776 66.0364 114.855 66.1686 114.891 66.3244C114.926 66.4817 114.944 66.6334 114.944 66.7795C114.944 66.8839 114.895 67.021 114.796 67.1908C114.698 67.3619 114.556 67.515 114.371 67.65C114.188 67.7864 113.971 67.8546 113.72 67.8546C113.559 67.8546 113.411 67.8337 113.277 67.792C113.241 67.8059 113.205 67.8129 113.169 67.8129C113.061 67.8129 112.99 67.7746 112.954 67.698C112.945 67.6772 112.936 67.6584 112.927 67.6417C112.918 67.6236 112.909 67.6076 112.9 67.5937C112.73 67.4545 112.606 67.2771 112.529 67.0613C112.453 66.8456 112.409 66.6243 112.394 66.3975C112.382 66.172 112.375 65.9723 112.375 65.7984C112.375 65.7566 112.386 65.7218 112.408 65.694C112.431 65.6662 112.456 65.6453 112.483 65.6314C112.465 65.5966 112.445 65.5632 112.421 65.5312C112.4 65.5005 112.389 65.4644 112.389 65.4226C112.389 65.2834 112.418 65.1651 112.475 65.0677C112.534 64.9703 112.591 64.8625 112.644 64.7442C112.528 64.6815 112.47 64.6085 112.47 64.525C112.362 64.525 112.272 64.5493 112.201 64.598C112.156 64.6259 112.104 64.6502 112.045 64.6711C111.987 64.692 111.914 64.7024 111.824 64.7024C111.77 64.7024 111.716 64.6934 111.663 64.6753C111.609 64.6586 111.555 64.6502 111.501 64.6502C111.438 64.6502 111.376 64.662 111.313 64.6857C111.25 64.7108 111.183 64.7233 111.111 64.7233C111.022 64.7233 110.941 64.7094 110.869 64.6815C110.797 64.6537 110.73 64.6224 110.667 64.5876V64.6189C110.667 64.6676 110.651 64.7128 110.619 64.7546C110.588 64.7963 110.528 64.8346 110.439 64.8694L110.412 64.8798C110.439 65.0121 110.452 65.1199 110.452 65.2034C110.452 65.3148 110.427 65.4087 110.377 65.4852C110.328 65.5618 110.264 65.694 110.183 65.8819C110.174 65.9097 110.163 65.9737 110.148 66.0739C110.136 66.1755 110.125 66.2889 110.116 66.4142C110.107 66.5395 110.1 66.6557 110.094 66.7628C110.091 66.8714 110.094 66.9465 110.103 66.9883C110.111 67.0161 110.116 67.0405 110.116 67.0613C110.116 67.0822 110.116 67.1031 110.116 67.124C110.116 67.2214 110.091 67.3084 110.041 67.3849C109.992 67.4615 109.901 67.5206 109.766 67.5623C109.766 67.5623 109.757 67.6006 109.739 67.6772C109.721 67.7537 109.687 67.8372 109.637 67.9277C109.589 68.0181 109.515 68.0842 109.417 68.126L109.363 68.1573C109.219 68.2408 109.116 68.3173 109.053 68.3869C108.991 68.4565 108.934 68.5177 108.884 68.5706C108.836 68.6221 108.758 68.6674 108.65 68.7063C108.542 68.7439 108.372 68.7731 108.139 68.794L108.112 68.8044C108.049 68.8462 107.991 68.881 107.937 68.9088C107.883 68.9367 107.807 68.9506 107.709 68.9506H107.547C107.538 68.9506 107.527 68.9527 107.512 68.9568C107.5 68.9596 107.484 68.961 107.466 68.961ZM117.782 63.4812C117.648 63.4812 117.509 63.4374 117.365 63.3497C117.222 63.2634 117.15 63.1576 117.15 63.0324C117.15 62.9767 117.19 62.9176 117.271 62.8549C117.352 62.7923 117.419 62.7436 117.473 62.7088L117.661 62.594C117.679 62.5801 117.708 62.571 117.747 62.5668C117.788 62.5641 117.822 62.5627 117.849 62.5627C117.966 62.5627 118.065 62.6058 118.145 62.6921C118.226 62.7798 118.266 62.8549 118.266 62.9176C118.266 62.9732 118.25 63.0463 118.218 63.1367C118.187 63.2272 118.138 63.3072 118.07 63.3768C118.004 63.4464 117.908 63.4812 117.782 63.4812ZM117.917 67.5102C117.917 67.5102 117.89 67.5032 117.836 67.4893C117.818 67.4893 117.796 67.4858 117.769 67.4788C117.742 67.4719 117.715 67.4649 117.688 67.458C117.625 67.4441 117.567 67.4315 117.513 67.4204C117.459 67.4107 117.423 67.4058 117.406 67.4058C117.37 67.4058 117.325 67.4127 117.271 67.4267C117.217 67.4406 117.181 67.4475 117.163 67.4475C117.154 67.4475 117.138 67.4441 117.115 67.4371C117.094 67.4301 117.078 67.4267 117.069 67.4267C117.042 67.4197 117.016 67.4127 116.989 67.4058C116.962 67.3988 116.93 67.3953 116.894 67.3953C116.85 67.3814 116.796 67.3759 116.733 67.3786C116.67 67.3828 116.625 67.3849 116.599 67.3849L115.778 67.3953C115.751 67.3953 115.733 67.3919 115.724 67.3849C115.653 67.4127 115.59 67.4267 115.536 67.4267H115.496C115.433 67.4962 115.37 67.531 115.307 67.531C115.245 67.531 115.195 67.5032 115.159 67.4475C115.124 67.3919 115.106 67.3292 115.106 67.2597C115.106 67.1622 115.168 67.1135 115.294 67.1135H115.334C115.388 67.0787 115.451 67.0613 115.523 67.0613C115.55 67.0613 115.59 67.0683 115.644 67.0822C115.697 67.0683 115.742 67.0613 115.778 67.0613C115.832 67.0613 115.879 67.0662 115.918 67.076C115.959 67.0871 116.007 67.0927 116.061 67.0927C116.105 67.0927 116.164 67.0787 116.235 67.0509C116.307 67.0231 116.37 66.9952 116.424 66.9674L116.464 66.8735C116.401 66.79 116.37 66.7169 116.37 66.6543C116.37 66.5708 116.433 66.5012 116.558 66.4455C116.531 66.4038 116.518 66.3655 116.518 66.3307C116.518 66.282 116.549 66.2333 116.612 66.1846C116.531 66.1498 116.491 66.1045 116.491 66.0489C116.491 66.0141 116.509 65.9723 116.545 65.9236C116.563 65.9097 116.576 65.8958 116.585 65.8819C116.486 65.8471 116.437 65.781 116.437 65.6836C116.437 65.6001 116.491 65.5513 116.599 65.5374C116.599 65.5235 116.596 65.5131 116.59 65.5061C116.587 65.4992 116.585 65.4922 116.585 65.4852C116.585 65.4435 116.599 65.4087 116.625 65.3809C116.652 65.353 116.684 65.3287 116.72 65.3078C116.657 65.2521 116.634 65.193 116.652 65.1304C116.617 65.1025 116.558 65.0956 116.478 65.1095C116.469 65.1095 116.46 65.1109 116.451 65.1137C116.442 65.1178 116.428 65.1199 116.41 65.1199C116.356 65.1338 116.321 65.1408 116.303 65.1408L116.168 65.1199C116.15 65.1338 116.141 65.1443 116.141 65.1512C116.043 65.2208 115.955 65.2626 115.878 65.2765C115.802 65.2904 115.765 65.2974 115.765 65.2974C115.639 65.2974 115.576 65.2452 115.576 65.1408C115.576 65.106 115.592 65.0726 115.622 65.0406C115.654 65.01 115.702 64.9947 115.765 64.9947H115.805C115.877 64.8972 115.993 64.8207 116.155 64.765C116.316 64.7094 116.469 64.6746 116.612 64.6607C116.657 64.6398 116.702 64.6189 116.747 64.598C116.791 64.5772 116.832 64.5563 116.868 64.5354C116.885 64.5284 116.901 64.518 116.913 64.5041C116.928 64.4902 116.939 64.4797 116.948 64.4728L116.975 64.4519C116.984 64.4449 116.989 64.4394 116.989 64.4352C116.989 64.4324 116.989 64.431 116.989 64.431L117.096 64.3788L117.217 64.3266C117.226 64.3266 117.249 64.3127 117.284 64.2849C117.311 64.264 117.349 64.2362 117.397 64.2014C117.448 64.1666 117.491 64.1527 117.527 64.1596C117.616 64.1596 117.672 64.177 117.693 64.2118C117.717 64.2466 117.728 64.2919 117.728 64.3475C117.737 64.3962 117.737 64.4275 117.728 64.4415C117.719 64.4484 117.708 64.4637 117.693 64.4874C117.681 64.5124 117.666 64.5528 117.648 64.6085C117.612 64.6989 117.578 64.7977 117.545 64.9049C117.515 65.0135 117.482 65.1199 117.446 65.2243C117.437 65.2521 117.437 65.2814 117.446 65.312C117.455 65.344 117.455 65.3774 117.446 65.4122C117.428 65.4818 117.41 65.5493 117.392 65.6147C117.374 65.6815 117.361 65.7497 117.352 65.8192C117.343 65.9027 117.336 66.005 117.33 66.1261C117.327 66.2486 117.325 66.3571 117.325 66.4518C117.325 66.545 117.325 66.6021 117.325 66.623C117.325 66.6438 117.331 66.6891 117.344 66.7586C117.358 66.8282 117.374 66.8874 117.392 66.9361C117.446 67.0335 117.54 67.1205 117.675 67.197C117.692 67.204 117.715 67.2109 117.742 67.2179C117.769 67.2249 117.791 67.2318 117.809 67.2388L117.97 67.2701C118.006 67.2771 118.039 67.2875 118.07 67.3014C118.102 67.3153 118.118 67.3327 118.118 67.3536V67.364C118.118 67.3988 118.096 67.4322 118.051 67.4642C118.006 67.4949 117.961 67.5102 117.917 67.5102ZM118.331 68.0634C118.295 68.0842 118.25 68.0947 118.196 68.0947C118.071 68.0947 118.008 68.0494 118.008 67.959C118.008 67.9242 118.03 67.8824 118.075 67.8337C118.201 67.7294 118.291 67.6528 118.344 67.6041C118.398 67.5554 118.519 67.5171 118.707 67.4893C118.725 67.4893 118.739 67.4879 118.748 67.4851C118.757 67.4809 118.766 67.4788 118.775 67.4788C118.828 67.4232 118.891 67.3466 118.963 67.2492C119.035 67.1518 119.096 67.0488 119.146 66.9403C119.194 66.8331 119.205 66.7447 119.178 66.6751C119.169 66.6473 119.163 66.6209 119.159 66.5958C119.154 66.5722 119.151 66.5499 119.151 66.529C119.151 66.4246 119.185 66.3411 119.253 66.2785C119.32 66.2159 119.357 66.1567 119.366 66.1011L119.447 66.0489C119.456 66.0419 119.461 66.0364 119.461 66.0322C119.461 66.0294 119.461 66.028 119.461 66.028C119.461 66.0002 119.425 65.9723 119.353 65.9445C119.281 65.9167 119.245 65.8784 119.245 65.8297C119.245 65.7531 119.272 65.6989 119.326 65.6669C119.38 65.6362 119.42 65.6175 119.447 65.6105V65.4017C119.447 65.3669 119.452 65.3287 119.461 65.2869C119.47 65.2452 119.492 65.2104 119.528 65.1825C119.51 65.1478 119.492 65.1144 119.474 65.0823C119.456 65.0517 119.434 65.0225 119.407 64.9947C119.29 65.0364 119.165 65.0608 119.03 65.0677C118.896 65.0747 118.766 65.0851 118.64 65.099H118.6C118.546 65.099 118.504 65.083 118.473 65.051C118.441 65.0204 118.425 64.9877 118.425 64.9529C118.425 64.9181 118.438 64.8868 118.465 64.859C118.492 64.8311 118.533 64.8137 118.586 64.8068C118.676 64.7929 118.804 64.7838 118.971 64.7796C119.136 64.7769 119.245 64.7476 119.299 64.692L119.34 64.6502C119.375 64.6154 119.418 64.5876 119.469 64.5667C119.517 64.5458 119.573 64.5424 119.635 64.5563L119.81 64.598C119.945 64.5145 120.048 64.4589 120.12 64.431C120.191 64.4032 120.312 64.3545 120.483 64.2849C120.554 64.264 120.604 64.2536 120.631 64.2536C120.711 64.2536 120.752 64.2953 120.752 64.3788C120.752 64.4415 120.736 64.511 120.706 64.5876C120.674 64.6641 120.644 64.7302 120.617 64.7859C120.671 64.7511 120.754 64.6954 120.867 64.6189C120.979 64.5424 121.066 64.4937 121.128 64.4728C121.173 64.4171 121.222 64.3719 121.276 64.3371C121.33 64.3023 121.402 64.2849 121.491 64.2849C121.572 64.2849 121.644 64.3162 121.707 64.3788H121.922C121.958 64.3649 121.994 64.3524 122.029 64.3413C122.065 64.3315 122.106 64.3266 122.15 64.3266C122.249 64.3266 122.355 64.3524 122.468 64.4039C122.579 64.4568 122.639 64.511 122.648 64.5667C122.693 64.5946 122.738 64.6168 122.783 64.6335C122.827 64.6516 122.863 64.6781 122.89 64.7128C122.926 64.7616 122.942 64.8103 122.939 64.859C122.933 64.9077 122.931 64.9599 122.931 65.0155C122.931 65.099 122.931 65.2048 122.931 65.3328C122.931 65.4623 122.917 65.5792 122.89 65.6836C122.863 65.7879 122.814 65.8471 122.742 65.861H122.662C122.545 66.0071 122.388 66.1289 122.191 66.2263C121.994 66.3237 121.743 66.3724 121.438 66.3724C121.411 66.3724 121.393 66.369 121.384 66.362C121.357 66.369 121.317 66.3724 121.263 66.3724C121.119 66.3724 121.019 66.3425 120.962 66.2827C120.902 66.2242 120.864 66.1533 120.846 66.0698C120.801 65.9863 120.779 65.9097 120.779 65.8401C120.779 65.7357 120.806 65.6383 120.859 65.5479C120.904 65.4435 120.97 65.3565 121.056 65.2869C121.14 65.2173 121.258 65.1825 121.411 65.1825C121.491 65.1825 121.577 65.193 121.666 65.2139C121.774 65.2347 121.828 65.2834 121.828 65.36C121.828 65.4017 121.805 65.4379 121.76 65.4685C121.716 65.5005 121.653 65.5131 121.572 65.5061H121.518C121.393 65.5061 121.294 65.5583 121.222 65.6627V65.8088C121.222 65.8227 121.221 65.845 121.217 65.8756C121.212 65.9076 121.209 65.9375 121.209 65.9654C121.263 66.021 121.321 66.0524 121.384 66.0593C121.491 66.0454 121.611 66.028 121.742 66.0071C121.871 65.9863 121.958 65.9689 122.003 65.9549C121.994 65.9341 121.989 65.9062 121.989 65.8714C121.989 65.774 122.065 65.6975 122.218 65.6418C122.191 65.607 122.177 65.5792 122.177 65.5583C122.177 65.4748 122.249 65.3948 122.393 65.3182C122.303 65.2765 122.258 65.2173 122.258 65.1408C122.258 65.099 122.267 65.0712 122.285 65.0573C122.303 65.0434 122.316 65.026 122.325 65.0051C122.28 64.9634 122.258 64.9216 122.258 64.8798C122.258 64.859 122.263 64.8395 122.272 64.8214C122.28 64.8047 122.285 64.7929 122.285 64.7859C122.285 64.772 122.267 64.7581 122.231 64.7442C122.195 64.7302 122.115 64.7128 121.989 64.692C121.953 64.6989 121.913 64.7094 121.868 64.7233C121.823 64.7372 121.778 64.7442 121.734 64.7442C121.662 64.7442 121.604 64.7268 121.559 64.692C121.523 64.6989 121.49 64.7038 121.459 64.7066C121.427 64.7108 121.397 64.7198 121.37 64.7337C121.299 64.7963 121.194 64.859 121.056 64.9216C120.916 64.9842 120.779 65.0503 120.644 65.1199C120.554 65.1895 120.478 65.266 120.416 65.3495C120.353 65.4331 120.294 65.5235 120.241 65.6209C120.259 65.6627 120.236 65.7427 120.173 65.861C120.111 65.9793 120.07 66.0628 120.052 66.1115C120.025 66.2855 120.01 66.4246 120.007 66.529C120.001 66.6334 119.999 66.7343 119.999 66.8317C119.999 66.9291 119.985 67.0544 119.958 67.2075C120.039 67.2214 120.118 67.2367 120.195 67.2534C120.27 67.2715 120.353 67.284 120.442 67.291L120.456 67.3014C120.528 67.3014 120.581 67.3292 120.617 67.3849C120.734 67.3919 120.792 67.4406 120.792 67.531C120.792 67.5658 120.774 67.6006 120.738 67.6354C120.702 67.6702 120.649 67.6841 120.577 67.6772C120.541 67.6772 120.459 67.6681 120.329 67.65C120.199 67.6333 120.057 67.6111 119.904 67.5832C119.869 67.5832 119.833 67.5853 119.797 67.5895C119.761 67.5923 119.725 67.5971 119.689 67.6041C119.644 67.6806 119.564 67.7189 119.447 67.7189H119.38C119.29 67.7537 119.203 67.7885 119.119 67.8233C119.033 67.8581 118.932 67.879 118.815 67.8859C118.725 67.8859 118.658 67.888 118.613 67.8922C118.568 67.895 118.537 67.8998 118.519 67.9068C118.519 67.9068 118.51 67.9138 118.492 67.9277C118.483 67.9346 118.473 67.9506 118.46 67.9757C118.446 67.9993 118.403 68.0286 118.331 68.0634ZM124.76 67.4058H124.329C124.006 67.4058 123.76 67.3049 123.59 67.1031C123.473 67.0335 123.364 66.9514 123.261 66.8568C123.157 66.7635 123.105 66.6682 123.105 66.5708C123.105 66.5221 123.119 66.4733 123.146 66.4246C123.101 66.3481 123.096 66.2959 123.132 66.2681L123.146 66.2576C123.119 66.2437 123.092 66.2228 123.065 66.195C123.038 66.1672 123.025 66.1289 123.025 66.0802C123.025 66.0106 123.043 65.9584 123.078 65.9236L123.065 65.9132C123.056 65.8923 123.052 65.861 123.052 65.8192C123.052 65.7427 123.086 65.6676 123.154 65.5938C123.22 65.5214 123.285 65.4609 123.347 65.4122C123.303 65.3426 123.28 65.2765 123.28 65.2139C123.28 65.0747 123.346 64.939 123.477 64.8068C123.606 64.6746 123.72 64.5667 123.818 64.4832C123.8 64.3162 123.899 64.2327 124.114 64.2327C124.177 64.2327 124.247 64.2097 124.324 64.1638C124.399 64.1193 124.495 64.097 124.612 64.097C124.657 64.097 124.692 64.1005 124.719 64.1075C124.746 64.1144 124.773 64.1249 124.8 64.1388C124.997 64.1388 125.184 64.2167 125.359 64.3726C125.533 64.5298 125.677 64.7094 125.79 64.9112C125.901 65.113 125.957 65.2904 125.957 65.4435C125.948 65.4852 125.916 65.511 125.862 65.5207C125.809 65.5319 125.746 65.5409 125.674 65.5479H125.567C125.504 65.5479 125.444 65.5458 125.386 65.5416C125.327 65.5388 125.284 65.5374 125.257 65.5374C125.168 65.5374 125.042 65.5409 124.881 65.5479C124.719 65.5548 124.558 65.5653 124.397 65.5792C124.235 65.5931 124.114 65.614 124.033 65.6418C123.944 65.6696 123.881 65.7427 123.845 65.861C123.809 65.9793 123.791 66.1185 123.791 66.2785C123.791 66.3551 123.818 66.4594 123.872 66.5916C123.926 66.7239 124.005 66.8421 124.109 66.9465C124.211 67.0509 124.338 67.1031 124.491 67.1031C124.688 67.1031 124.839 67.0822 124.943 67.0405C125.045 66.9987 125.127 66.9396 125.19 66.863C125.208 66.8282 125.248 66.7948 125.311 66.7628C125.374 66.7322 125.41 66.696 125.419 66.6543C125.437 66.6125 125.472 66.5673 125.526 66.5186C125.58 66.4699 125.616 66.4212 125.634 66.3724C125.643 66.3585 125.641 66.339 125.628 66.314C125.614 66.2903 125.607 66.2646 125.607 66.2368C125.607 66.2159 125.616 66.1929 125.634 66.1679C125.652 66.1442 125.688 66.1324 125.741 66.1324C125.795 66.1324 125.847 66.1581 125.897 66.2096C125.946 66.2625 125.97 66.3377 125.97 66.4351C125.97 66.4559 125.97 66.4768 125.97 66.4977C125.97 66.5186 125.966 66.5395 125.957 66.5603C125.93 66.6438 125.903 66.696 125.876 66.7169C125.867 66.7378 125.849 66.7586 125.822 66.7795C125.795 66.8004 125.768 66.8282 125.741 66.863C125.679 66.9187 125.592 66.9897 125.481 67.076C125.368 67.1636 125.247 67.2402 125.117 67.3056C124.986 67.3724 124.867 67.4058 124.76 67.4058ZM123.872 65.3287C123.899 65.3356 123.926 65.3391 123.953 65.3391C123.98 65.3391 124.006 65.3391 124.033 65.3391C124.087 65.3391 124.139 65.337 124.189 65.3328C124.238 65.3301 124.289 65.3252 124.343 65.3182C124.414 65.3113 124.484 65.3057 124.553 65.3015C124.619 65.2988 124.674 65.2974 124.719 65.2974H124.908C124.899 65.2834 124.894 65.2626 124.894 65.2347C124.894 65.1443 124.961 65.0608 125.096 64.9842C125.078 64.9077 125.06 64.8242 125.042 64.7337C125.024 64.6433 124.979 64.5667 124.908 64.5041L124.787 64.4728C124.76 64.4728 124.737 64.4693 124.719 64.4623C124.522 64.4693 124.37 64.5333 124.262 64.6544C124.154 64.7769 124.069 64.9007 124.006 65.026C123.98 65.0677 123.96 65.1109 123.947 65.1554C123.933 65.2013 123.908 65.2591 123.872 65.3287Z" fill="white"/>
</g>
</g>
</g>
</g>
<g clip-path="url(#clip8_6_93)">
<g clip-path="url(#clip9_6_93)">
<path d="M70.7538 46.2499C70.7538 40.5723 76.6843 35.9698 84 35.9698C91.3158 35.9698 97.2463 40.5723 97.2463 46.2499C97.2463 51.9274 91.3158 56.53 84 56.53C76.6843 56.53 70.7538 51.9274 70.7538 46.2499ZM84 55.7685C90.7738 55.7685 96.2651 51.5069 96.2651 46.2499C96.2651 40.9929 90.7738 36.7312 84 36.7312C77.2262 36.7312 71.7349 40.9929 71.7349 46.2499C71.7349 51.5069 77.2262 55.7685 84 55.7685Z" fill="white"/>
<g clip-path="url(#clip10_6_93)">
<g clip-path="url(#clip11_6_93)">
<path d="M79.3278 46.624C78.5613 46.624 77.9374 47.1088 77.9374 47.7054C77.9374 48.2987 78.5613 48.7836 79.3278 48.7836C80.0964 48.7836 80.7211 48.2987 80.7211 47.7054C80.7211 47.1088 80.0964 46.624 79.3278 46.624ZM79.3278 48.2864C78.9176 48.2864 78.5803 48.0245 78.5803 47.7054C78.5803 47.3848 78.9177 47.1229 79.3278 47.1229C79.741 47.1229 80.0774 47.3848 80.0774 47.7054C80.0774 48.0244 79.741 48.2864 79.3278 48.2864Z" fill="white"/>
<path d="M88.6962 46.624C87.9286 46.624 87.3048 47.1088 87.3048 47.7054C87.3048 48.2987 87.9286 48.7836 88.6962 48.7836C89.4637 48.7836 90.0865 48.2987 90.0865 47.7054C90.0865 47.1088 89.4637 46.624 88.6962 46.624ZM88.6962 48.2864C88.2831 48.2864 87.9465 48.0245 87.9465 47.7054C87.9465 47.3848 88.2829 47.1229 88.6962 47.1229C89.1096 47.1229 89.4458 47.3848 89.4458 47.7054C89.4458 48.0244 89.1094 48.2864 88.6962 48.2864Z" fill="white"/>
<path d="M91.3971 46.8967C91.3971 45.8479 90.5547 45.7224 90.5547 45.7224C89.3161 45.5876 87.182 45.5178 87.182 45.5178C86.9863 45.2545 86.0821 43.7161 85.5559 43.7161H80.9347C80.265 43.7161 79.1681 45.2157 78.9275 45.5551C78.9275 45.5551 78.0871 45.6667 77.6909 45.7379C77.4714 45.7766 76.8615 45.7859 76.8615 47.1074H76.3344V47.7054H77.617C77.617 46.9711 78.3846 46.3762 79.3278 46.3762C80.275 46.3762 81.0406 46.9711 81.0406 47.7054H86.9834C86.9832 47.5308 87.0273 47.3579 87.1133 47.1965C87.1993 47.0352 87.3255 46.8885 87.4846 46.7651C87.6437 46.6416 87.8326 46.5437 88.0405 46.477C88.2484 46.4102 88.4712 46.376 88.6962 46.3762C89.6414 46.3762 90.408 46.9711 90.408 47.7054H91.6656V46.8967H91.3971ZM83.1945 45.4156H80.5266C80.8868 44.5434 81.5556 43.9206 81.8381 43.9206H83.1946L83.1945 45.4156ZM83.6915 45.4156V43.9206H85.4223C85.7786 43.9206 86.5601 45.1863 86.7797 45.5101L83.6915 45.4156Z" fill="white"/>
</g>
</g>
</g>
</g>
</g>
</g>
</g>
</g>
<defs>
<clipPath id="clip0_6_93">
<rect width="167.902" height="104.709" fill="white" transform="translate(0.0490112 0.110809)"/>
</clipPath>
<clipPath id="clip1_6_93">
<rect width="167.902" height="104.709" fill="white" transform="translate(0.0490112 0.110809)"/>
</clipPath>
<clipPath id="clip2_6_93">
<rect width="83.951" height="32.9912" fill="white" transform="translate(42.0245 35.9698)"/>
</clipPath>
<clipPath id="clip3_6_93">
<rect width="83.951" height="32.9912" fill="white" transform="translate(42.0245 35.9698)"/>
</clipPath>
<clipPath id="clip4_6_93">
<rect width="83.951" height="8.44413" fill="white" transform="translate(42.0245 60.5169)"/>
</clipPath>
<clipPath id="clip5_6_93">
<rect width="83.951" height="8.44413" fill="white" transform="translate(42.0245 60.5169)"/>
</clipPath>
<clipPath id="clip6_6_93">
<rect width="83.951" height="8.44413" fill="white" transform="translate(42.0245 60.5169)"/>
</clipPath>
<clipPath id="clip7_6_93">
<rect width="83.951" height="8.44413" fill="white" transform="translate(42.0245 60.5169)"/>
</clipPath>
<clipPath id="clip8_6_93">
<rect width="26.4925" height="20.5602" fill="white" transform="translate(70.7538 35.9698)"/>
</clipPath>
<clipPath id="clip9_6_93">
<rect width="26.4925" height="20.5602" fill="white" transform="translate(70.7538 35.9698)"/>
</clipPath>
<clipPath id="clip10_6_93">
<rect width="15.3312" height="5.06754" fill="white" transform="translate(76.3344 43.7161)"/>
</clipPath>
<clipPath id="clip11_6_93">
<rect width="15.3312" height="5.06754" fill="white" transform="translate(76.3344 43.7161)"/>
</clipPath>
</defs>
</svg>
