<svg width="40" height="40" viewBox="0 0 40 40" fill="none" xmlns="http://www.w3.org/2000/svg">
<rect x="0.5" y="0.5" width="39" height="39" fill="#050402"/>
<rect x="0.5" y="0.5" width="39" height="39" stroke="#BB8C5F"/>
<path d="M16.6738 24.0683L16.3335 29.1664C16.8335 29.1664 17.0544 28.9377 17.3335 28.6664L19.7358 26.3305L24.7335 30.0229C25.6533 30.5304 26.3171 30.2676 26.5462 29.169L29.827 13.7085C30.1629 12.3618 29.3137 11.751 28.4338 12.1505L9.16879 19.579C7.85378 20.1064 7.86144 20.8401 8.92909 21.167L13.8729 22.71L25.3184 15.4892C25.8587 15.1615 26.3546 15.3377 25.9476 15.6989L16.6735 24.0681L16.6738 24.0683Z" fill="#BB8C5F"/>
</svg>
