<svg width="509" height="278" viewBox="0 0 509 278" fill="none" xmlns="http://www.w3.org/2000/svg">
<g clip-path="url(#clip0_3_64)" filter="url(#filter0_d_3_64)">
<path d="M499.225 263.201L499.23 263.196C500.557 261.673 501.677 259.872 502.538 257.866C503.821 254.876 504.497 251.519 504.5 248.105V20.8266C504.495 15.4041 502.795 10.2229 499.797 6.41655C496.801 2.61323 492.769 0.506526 488.596 0.500015H20.404C16.2313 0.506526 12.1988 2.61323 9.20309 6.41655C6.20507 10.2228 4.5052 15.4039 4.5 20.8263V248.105C4.49912 252.735 5.73725 257.219 7.99857 260.821C10.2595 264.423 13.3989 266.916 16.8846 267.927C16.8847 267.927 16.8848 267.927 16.8849 267.927L16.7455 268.408C17.6202 268.661 18.5102 268.82 19.4059 268.885L499.225 263.201ZM499.225 263.201C499.132 263.311 499.041 263.411 498.95 263.501L498.941 263.511L498.932 263.521C497.729 264.857 496.374 265.945 494.919 266.749L494.915 266.751C494.271 267.114 493.608 267.418 492.932 267.661L499.225 263.201Z" fill="black" fill-opacity="0.71"/>
<path d="M499.225 263.201L499.23 263.196C500.557 261.673 501.677 259.872 502.538 257.866C503.821 254.876 504.497 251.519 504.5 248.105V20.8266C504.495 15.4041 502.795 10.2229 499.797 6.41655C496.801 2.61323 492.769 0.506526 488.596 0.500015H20.404C16.2313 0.506526 12.1988 2.61323 9.20309 6.41655C6.20507 10.2228 4.5052 15.4039 4.5 20.8263V248.105C4.49912 252.735 5.73725 257.219 7.99857 260.821C10.2595 264.423 13.3989 266.916 16.8846 267.927C16.8847 267.927 16.8848 267.927 16.8849 267.927L16.7455 268.408C17.6202 268.661 18.5102 268.82 19.4059 268.885L499.225 263.201ZM499.225 263.201C499.132 263.311 499.041 263.411 498.95 263.501L498.941 263.511L498.932 263.521C497.729 264.857 496.374 265.945 494.919 266.749L494.915 266.751C494.271 267.114 493.608 267.418 492.932 267.661L499.225 263.201Z" stroke="#1E1E1E"/>
<path d="M499.225 263.201L499.23 263.196C500.557 261.673 501.677 259.872 502.538 257.866C503.821 254.876 504.497 251.519 504.5 248.105V20.8266C504.495 15.4041 502.795 10.2229 499.797 6.41655C496.801 2.61323 492.769 0.506526 488.596 0.500015H20.404C16.2313 0.506526 12.1988 2.61323 9.20309 6.41655C6.20507 10.2228 4.5052 15.4039 4.5 20.8263V248.105C4.49912 252.735 5.73725 257.219 7.99857 260.821C10.2595 264.423 13.3989 266.916 16.8846 267.927C16.8847 267.927 16.8848 267.927 16.8849 267.927L16.7455 268.408C17.6202 268.661 18.5102 268.82 19.4059 268.885L499.225 263.201ZM499.225 263.201C499.132 263.311 499.041 263.411 498.95 263.501L498.941 263.511L498.932 263.521C497.729 264.857 496.374 265.945 494.919 266.749L494.915 266.751C494.271 267.114 493.608 267.418 492.932 267.661L499.225 263.201Z" stroke="black" stroke-opacity="0.2"/>
<path d="M121.001 1.52588e-05C95.3458 75.9744 100.266 168.239 121.001 268.931H264.932C282.931 168.124 292.043 72.8303 264.932 1.52588e-05H121.001Z" fill="#373636"/>
<path d="M62.9488 1.52588e-05C16.0703 73.2446 29.1489 167.463 62.9488 268.931H121.001C100.066 173.073 96.6432 82.4131 121.001 1.52588e-05H62.9488Z" fill="black" fill-opacity="0.71"/>
<path d="M238.324 6.23425H216.553V33.8743H238.324V6.23425Z" fill="white"/>
<path d="M203.249 6.23425H181.478V33.8743H203.249V6.23425Z" fill="white"/>
<path d="M168.174 6.23425H146.403V33.8743H168.174V6.23425Z" fill="white"/>
<path d="M237.719 69.1922H215.948V96.8323H237.719V69.1922Z" fill="white"/>
<path d="M202.644 69.1922H180.873V96.8323H202.644V69.1922Z" fill="white"/>
<path d="M167.569 69.1922H145.798V96.8323H167.569V69.1922Z" fill="white"/>
<path d="M237.158 135H214.998V160H237.158V135Z" fill="white"/>
<path d="M202.039 132.15H180.269V159.79H202.039V132.15Z" fill="white"/>
<path d="M166.964 132.15H145.194V159.79H166.964V132.15Z" fill="white"/>
<path d="M236.509 195.108H214.739V222.748H236.509V195.108Z" fill="white"/>
<path d="M201.434 195.108H179.664V222.748H201.434V195.108Z" fill="white"/>
<path d="M166.36 195.108H144.589V222.748H166.36V195.108Z" fill="white"/>
<path d="M235.906 258.063H214.131V268.931H235.906V258.063Z" fill="white"/>
<path d="M200.829 258.063H179.061V268.931H200.829V258.063Z" fill="white"/>
<path d="M165.751 258.063H143.984V268.931H165.751V258.063Z" fill="white"/>
<path d="M4 142.845V248.105C3.99911 252.821 5.25961 257.399 7.57509 261.087C9.89058 264.775 13.1239 267.357 16.7455 268.408C17.6202 268.661 18.5102 268.82 19.4059 268.885C19.7313 268.922 20.071 268.931 20.4036 268.931H83.5094C96.7583 219.67 121.117 8.26067 21.3506 26.6177L4 142.845Z" fill="#373636"/>
<path d="M55.0875 195.108H33.3169V222.748H55.0875V195.108Z" fill="white"/>
<path d="M20.0132 195.108H4V222.744H20.0132V195.108Z" fill="white"/>
<path d="M54.4832 258.063H32.7153V268.931H54.4832V258.063Z" fill="white"/>
<path d="M5.9953 258.063C7.11181 260.652 8.64673 262.912 10.4994 264.694C12.3521 266.477 14.4806 267.743 16.7455 268.408C17.6202 268.661 18.5102 268.82 19.4059 268.885V258.063H5.9953Z" fill="white"/>
<path d="M505 172.373V248.105C504.997 251.584 504.309 255.008 502.997 258.063L501.87 256.861L499.694 254.548L487.649 241.762L490.642 257.421L487.122 257.66L486.847 257.678L480.456 258.118L474.868 258.504H474.846L466.872 259.055L459.086 259.587L456.49 259.761L439.957 260.9L432.908 261.386L429.713 261.606L421.261 262.185L409.926 262.965L407.822 263.112L374.552 265.397L353.391 266.856L350.109 267.077L349.863 267.095L348.526 267.187H348.519L345.62 267.389L341.456 267.673L334.711 268.132L331.732 268.334L323.143 268.931L314.866 269.5L307.044 268.931L281.82 267.095L265.467 265.902L264.932 265.865L235.906 263.754L214.131 262.166L200.829 261.202L179.061 259.615L169.026 258.889L165.751 258.651L157.698 258.063L121.001 255.392L118.268 255.19L118.117 255.181L104.822 254.218L96.5223 253.612L113.96 233.043L114.198 232.758L121.001 224.736C125.896 213.584 130.595 202.322 144.591 196.907L146.116 195.108L167.132 170.317L170.718 170.252L264.932 168.674L279.16 168.435L308.309 167.949L318.871 167.774L326.671 168.352L394.252 173.382L398.655 173.713L421.124 175.383L441.916 176.925L451.799 177.659L454.213 177.843L454.372 177.852L455.587 177.944L458.84 177.577L462.838 177.127L464.32 176.962L465 176.879L479.234 175.282L480.427 175.145L483.832 174.759L503.554 209.27L505 172.373Z" fill="black" fill-opacity="0.71"/>
<path d="M428.69 254.233C418.674 235.825 411.374 189.087 414.231 169.791C414.106 169.161 420.081 179.747 420.1 179.09C420.195 175.849 422.014 173.337 424.164 173.48L451.172 175.277C451.841 175.35 452.482 175.645 453.033 176.131C453.584 176.618 454.024 177.279 454.311 178.049L474.731 227.699C475.053 228.492 475.246 229.36 475.299 230.251C475.498 233.482 473.923 236.344 471.781 236.644L435.569 241.722C435.45 241.739 435.33 241.747 435.21 241.747C433.49 241.742 429.187 256.717 428.69 254.233Z" fill="white"/>
<path d="M313.72 254.062L313.985 255.888L315.013 262.919C315.22 264.349 315.542 265.748 315.972 267.095C316.1 267.517 316.246 267.93 316.4 268.334C316.477 268.536 316.554 268.729 316.64 268.931H390.79L403.097 267.123L403.251 267.095C405.787 266.652 408.145 265.185 409.974 262.91C411.491 260.991 412.695 258.711 413.517 256.201C414.338 253.69 414.761 250.998 414.761 248.279C414.778 247.52 414.761 246.76 414.71 246.003C414.643 244.93 414.511 243.865 414.316 242.818C415.701 222.855 412.052 203.394 403.653 184.406C402.965 180.347 401.279 176.671 398.84 173.906C396.836 171.653 394.286 170.338 391.612 170.179L331.756 167.058C329.476 166.965 327.227 167.742 325.298 169.289C321.633 172.171 318.969 177.604 318.447 184.14C313.408 204.682 311.727 226.314 313.505 247.71C313.341 249.829 313.413 251.968 313.72 254.062Z" fill="white"/>
<path d="M291.806 263.421L138.012 257.738C136.078 257.667 107.484 271.993 106.096 269.765C103.056 264.886 102.981 256.853 105.93 251.822L173.115 167.232C173.73 166.087 174.549 165.142 175.505 164.473C176.461 163.803 177.528 163.428 178.619 163.378H302.417C303.002 163.378 303.585 163.488 304.145 163.704C308.271 165.284 310.842 172.099 309.887 178.926L299.448 253.594C298.633 259.338 295.541 263.405 291.976 263.424C291.92 263.424 291.863 263.423 291.806 263.421Z" fill="white"/>
<path d="M452.583 181.127L321.877 169.683L167.132 170.319C186.167 144.764 269.832 113.606 359.436 151.245C449.077 155.059 455.587 177.948 455.587 177.948L456.705 180.173L452.583 181.127Z" fill="#6C63FF"/>
<path d="M504.364 253.832C504.035 255.303 503.576 256.722 502.997 258.063C502.117 260.113 500.971 261.959 499.607 263.525C499.506 263.644 499.404 263.754 499.303 263.855C498.066 265.23 496.668 266.354 495.161 267.187C494.492 267.563 493.804 267.879 493.1 268.132C492.638 268.297 492.161 268.444 491.683 268.554C491.037 268.717 490.382 268.825 489.724 268.876C489.355 268.912 488.98 268.931 488.596 268.931H323.143L314.866 269.5L307.044 268.931H20.4036C20.071 268.931 19.7312 268.922 19.4059 268.885C18.5102 268.82 17.6202 268.661 16.7455 268.407L19.4059 267.912L23.8159 267.095L32.7153 265.443L54.4832 261.404L62.9489 259.835L83.5094 256.026L86.9434 255.392L96.5224 253.612L104.974 253.823L117.907 254.153H118.066L121.001 254.227L140.658 254.722L147.88 254.906L200.858 256.237L205.701 256.356L212.924 256.54L235.92 257.127L264.932 257.852L266.87 257.898L297.934 258.687L298.339 258.697L314.186 257.274L329.693 255.888L341.441 254.842L345.229 254.502L345.374 254.493L346.213 254.419L346.762 254.364L351.374 253.951L368.631 252.409L376.316 251.721L379.627 251.427L383.09 251.115L414.762 248.279L423.582 247.49H423.589L428.411 247.058L437.253 246.269H437.26L446.348 245.452H446.355L449.883 245.14L451.235 245.021L461.529 244.103L467.754 243.543L478.439 242.588L481.743 242.295L486.182 241.891L487.396 241.781L487.649 241.762C487.649 241.762 491.365 241.863 496.209 245.278C497.743 246.363 499.193 247.629 500.539 249.059C501.473 250.044 502.361 251.095 503.2 252.207C503.59 252.721 503.973 253.263 504.364 253.832Z" fill="#6C63FF"/>
<path d="M340.465 268.931H351.678L350.651 267.719L350.124 267.095L350.109 267.077L347.745 264.296L345.866 262.074L344.34 264.011L343.726 264.791L341.911 267.095L341.456 267.673L340.465 268.931Z" fill="#CACACA"/>
<path d="M401.894 267.931H419.136L421.789 266.095L429.713 260.606L431.578 259.312L446.348 244.452H446.355L450.064 240.726L451.987 238.789L454.365 236.393L466.113 224.58C466.438 224.253 466.74 223.891 467.017 223.497C467.656 222.577 468.141 221.501 468.442 220.335C468.743 219.169 468.853 217.937 468.766 216.715C468.761 216.609 468.749 216.505 468.73 216.402C468.601 215.057 468.235 213.767 467.658 212.627C467.08 211.487 466.308 210.528 465.397 209.821C464.114 208.822 462.613 208.366 461.113 208.52C459.612 208.673 458.188 209.428 457.047 210.675L448.43 219.899L444.988 223.58L431.665 237.844L423.589 246.49H423.582L422.042 248.142L407.822 262.112L403.759 266.095L401.894 267.931Z" fill="#FFB6B6"/>
<path d="M461.59 236.689C462.045 236.768 462.508 236.655 462.908 236.368C463.308 236.081 463.622 235.635 463.803 235.099C464.036 234.444 464.424 233.897 464.914 233.535C465.01 233.466 465.108 233.405 465.21 233.353C465.828 233.058 466.381 232.577 466.821 231.952C467.262 231.328 467.577 230.577 467.74 229.765C468.247 227.081 469.872 224.477 471.504 222.468C473.291 220.271 475.198 218.164 476.519 215.487C478.424 211.626 478.958 206.207 475.283 202.986C473.703 201.647 471.808 201.04 469.917 201.268C465.958 201.677 462.684 204.744 459.574 207.716L460.353 205.775C457.001 209.097 453.155 211.525 449.045 212.913C449.756 213.734 449.14 215.375 448.227 215.756C447.315 216.138 446.331 215.736 445.391 215.483C444.206 215.163 442.742 215.191 442.274 216.987C442.172 217.42 442.141 217.876 442.184 218.325C442.228 218.775 442.343 219.208 442.525 219.597C445.826 227.055 450.306 233.565 455.684 238.719C456.879 239.862 458.266 240.988 459.752 240.764C461.238 240.54 462.502 238.195 461.59 236.689Z" fill="#6C63FF"/>
<path d="M458.312 251.877L459.086 259.587L459.838 267.095L459.917 267.894L460.026 268.931H488.596C488.98 268.931 489.355 268.912 489.724 268.876C490.382 268.825 491.037 268.717 491.683 268.554L492.009 266.599L492.197 265.434L480.246 260.652L474.868 258.504H474.853L467.082 255.383L458.312 251.877Z" fill="#FFB6B6"/>
<path d="M447.215 233.759C447.801 235.402 448.589 237.595 449.471 240.083C449.666 240.615 449.861 241.166 450.064 241.726C450.44 242.79 450.83 243.892 451.235 245.021C453.02 250.041 454.965 255.493 456.491 259.761C457.756 263.332 458.739 266.085 459.093 267.095C459.202 267.38 459.252 267.526 459.252 267.526L459.917 267.894L461.819 268.931H488.596C488.98 268.931 489.356 268.912 489.724 268.876C490.382 268.825 491.037 268.717 491.683 268.554C492.161 268.444 492.638 268.297 493.1 268.132C493.804 267.879 494.492 267.563 495.161 267.187C496.669 266.354 498.066 265.23 499.303 263.855C499.361 263.222 499.477 262.203 499.6 260.964C499.793 259.113 499.897 257.25 499.911 255.383C499.911 253.887 497.019 251.464 496.209 245.278C495.937 243.018 495.934 240.719 496.202 238.458C497.698 224.525 497.171 203.203 486.594 199.036L478.989 182.129H464.479L462.122 190.95V190.959L460.77 196.017L459.961 199.036L459.787 199.33L454.611 207.949C454.611 207.949 453.787 209.279 452.659 211.381V211.391C451.031 214.396 449.616 217.578 448.43 220.9C447.655 223.051 447.097 225.318 446.767 227.646C446.444 229.695 446.6 231.82 447.215 233.759Z" fill="#2F2E41"/>
<path d="M477.793 165.09C467.132 175.386 455.26 183.58 453.022 194.911C453.022 194.911 454.363 177.108 448.11 180.483C437.603 186.152 441.158 155.317 444.104 150.275C449.015 141.871 465.573 137.096 465.573 137.096L477.32 145.283L477.793 165.09Z" fill="#2F2E41"/>
<path d="M459.23 177.584C469.398 177.584 477.641 167.119 477.641 154.209C477.641 141.299 469.398 130.833 459.23 130.833C449.061 130.833 440.818 141.299 440.818 154.209C440.818 167.119 449.061 177.584 459.23 177.584Z" fill="#FFB6B6"/>
<path d="M465.86 145.265L466.569 149.216L454.184 152.795C454.173 151.996 454.032 151.209 453.77 150.482C453.507 149.756 453.13 149.106 452.661 148.573C452.928 150.122 452.897 151.73 452.572 153.261C445.892 158.02 446.276 159.706 440.878 158.492C440.516 158.597 440.141 158.61 439.775 158.531C439.409 158.452 439.058 158.282 438.744 158.03C438.43 157.779 438.157 157.452 437.942 157.067C437.728 156.683 437.575 156.248 437.492 155.788C435.32 143.675 434.607 131.295 444.101 128.288C446.408 127.555 448.808 127.415 451.159 127.876C453.51 128.336 455.765 129.387 457.792 130.969C459.818 132.55 461.576 134.629 462.961 137.084C464.347 139.539 465.333 142.32 465.86 145.265Z" fill="#2F2E41"/>
<path d="M462.831 161.028C462.225 157.653 461.036 154.492 459.351 151.772C457.665 149.051 455.525 146.84 453.085 145.296C450.645 143.753 447.966 142.917 445.24 142.848C442.515 142.779 439.811 143.478 437.324 144.897C438.186 141.669 439.929 138.94 442.238 137.203L456.179 129.519C463.056 127.531 473.941 121.89 478.908 127.292C483.484 132.255 481.257 141.969 485.471 147.409C490.089 153.372 490.481 160.421 489.172 164.476C487.657 169.167 484.625 175.567 480.843 176.953C480.646 175.302 479.997 173.792 479.011 172.687C479.283 174.261 479.307 175.887 479.081 177.472L456.179 200.661C458.318 198.3 460.141 192.214 461.396 185.36C462.138 181.302 466.571 179.878 462.976 172.992C459.381 166.107 463.319 163.75 462.831 161.028Z" fill="#2F2E41"/>
<path d="M481.173 135.163L481.109 135.326C481.031 135.544 480.952 135.761 480.888 135.988L480.881 135.997C480.531 136.16 480.138 135.897 479.753 135.48C479.813 136.46 479.856 137.409 479.888 138.338L467.696 132.281C469.816 132.746 470.13 123.168 471.651 125.003C471.736 125.103 471.815 125.203 471.893 125.302C471.704 124.725 471.574 124.119 471.508 123.499C471.443 122.721 471.491 121.934 471.651 121.179C471.653 121.175 471.655 121.171 471.657 121.166C471.658 121.162 471.658 121.157 471.658 121.152C471.81 120.468 472.046 119.82 472.357 119.23C472.807 118.373 473.375 117.627 474.035 117.028C474.877 116.211 475.858 115.658 476.9 115.412C477.942 115.166 479.015 115.236 480.031 115.614C482.36 116.733 484.285 118.896 485.442 121.695C486.497 123.85 487.035 126.347 486.991 128.882C486.948 129.548 486.835 130.203 486.656 130.831C486.433 131.713 486.053 132.517 485.546 133.182C485.038 133.847 484.416 134.354 483.729 134.665C483.558 134.737 483.358 134.819 483.144 134.918C483.029 133.739 483.022 132.547 483.122 131.366C482.328 132.502 481.672 133.782 481.173 135.163Z" fill="#2F2E41"/>
<path d="M469.366 131.665C469.382 132.17 469.43 132.673 469.509 133.169C469.515 133.233 469.525 133.297 469.538 133.359C470.037 136.178 472.743 130.314 474.834 132.281C476.138 133.473 477.584 134.391 479.117 135C479.182 134.773 479.753 135.217 479.831 135C479.853 134.946 479.81 134.148 479.831 134.094C478.527 133.456 477.319 132.536 476.262 131.375C474.299 129.535 474.577 131.257 474.121 128.656C473.592 125.656 470.48 126.943 472.079 125.52L471.893 125.194C470.758 126.189 469.92 127.642 469.516 129.317C469.517 129.322 469.516 129.327 469.515 129.332C469.514 129.337 469.512 129.341 469.509 129.345C469.39 130.108 469.342 130.887 469.366 131.665Z" fill="#6C63FF"/>
<path d="M466.308 268.931H479.574L479.726 267.095L480.246 260.652L480.456 258.118L481.352 247.095L481.743 242.295L482.603 231.712L482.892 228.151C483.076 225.792 482.523 223.436 481.352 221.591C480.181 219.745 478.486 218.557 476.632 218.284C476.363 218.244 476.093 218.223 475.822 218.219H475.8C475.472 218.224 475.143 218.251 474.817 218.302C473.146 218.606 471.614 219.654 470.494 221.257C469.435 222.762 468.809 224.677 468.715 226.691L468.708 226.829V226.838L468.079 237.889L467.754 243.543L467.58 246.673L467.082 255.383L466.872 259.055L466.416 267.095L466.308 268.931Z" fill="#FFB6B6"/>
<path d="M485.994 240.02C486.356 239.662 486.616 239.163 486.733 238.599C486.85 238.035 486.818 237.438 486.642 236.9C486.435 236.23 486.398 235.495 486.536 234.797C486.563 234.662 486.598 234.53 486.64 234.402C486.904 233.633 487.019 232.795 486.974 231.959C486.93 231.122 486.726 230.312 486.382 229.596C485.222 227.262 484.887 223.967 484.895 221.081C484.902 217.923 485.045 214.718 484.457 211.649C483.609 207.222 480.926 202.954 476.544 204.046C474.686 204.548 473.021 205.847 471.829 207.725C469.296 211.609 468.741 216.727 468.246 221.629L467.695 219.567C467.229 224.933 465.913 230.124 463.828 234.828C464.787 234.755 465.282 236.461 464.861 237.557C464.439 238.653 463.525 239.267 462.726 239.944C461.719 240.798 460.712 242.149 461.399 243.828C461.572 244.223 461.808 244.569 462.091 244.844C462.375 245.118 462.7 245.315 463.046 245.423C469.556 247.627 476.355 248.098 483.016 246.807C484.495 246.519 486.098 246.044 487.01 244.536C487.921 243.029 487.48 240.243 485.994 240.02Z" fill="#6C63FF"/>
<path d="M345.229 259.183C345.229 261.768 346.038 264.248 347.478 266.076C348.918 267.904 350.871 268.931 352.907 268.931H368.638C370.675 268.931 372.627 267.904 374.067 266.076C375.507 264.248 376.316 261.768 376.316 259.183V251.751C376.316 250.178 376.016 248.629 375.442 247.235C374.868 245.841 374.037 244.644 373.02 243.747C372.002 242.849 370.829 242.277 369.6 242.08C368.37 241.883 367.122 242.067 365.961 242.616L350.23 250.047C348.762 250.741 347.496 251.988 346.602 253.621C345.708 255.254 345.229 257.194 345.229 259.183Z" fill="#CACACA"/>
<path d="M20.4036 267.095C20.071 267.095 19.7385 267.077 19.4059 267.049V267.912L23.8159 267.095H20.4036ZM83.5094 267.095V268.931H121.001V267.095H83.5094ZM281.82 267.095L307.044 268.931H323.144L331.732 268.334L334.711 268.132L341.456 267.673L345.62 267.389L348.519 267.187H348.526L349.864 267.095H281.82ZM488.596 267.095H487.237L487.317 268.931H488.596C488.98 268.931 489.355 268.912 489.724 268.876L489.789 267.728L489.833 267.022C489.422 267.074 489.009 267.098 488.596 267.095ZM20.4036 267.095C20.071 267.095 19.7385 267.077 19.4059 267.049V267.912L23.8159 267.095H20.4036ZM83.5094 267.095V268.931H121.001V267.095H83.5094ZM281.82 267.095L307.044 268.931H323.144L331.732 268.334L334.711 268.132L341.456 267.673L345.62 267.389L348.519 267.187H348.526L349.864 267.095H281.82ZM20.4036 267.095C20.071 267.095 19.7385 267.077 19.4059 267.049V267.912L23.8159 267.095H20.4036ZM32.7153 267.095V268.931H165.751V267.095H32.7153ZM281.82 267.095L307.044 268.931H323.144L331.732 268.334L334.711 268.132L341.456 267.673L345.62 267.389L348.519 267.187H348.526L349.864 267.095H281.82ZM488.596 267.095H431.947C431.867 267.701 431.795 268.316 431.73 268.931H488.596C488.98 268.931 489.355 268.912 489.724 268.876L489.789 267.728L489.833 267.022C489.422 267.074 489.009 267.098 488.596 267.095ZM20.4036 267.095C20.071 267.095 19.7385 267.077 19.4059 267.049V267.912L23.8159 267.095H20.4036ZM20.4036 267.095C20.071 267.095 19.7385 267.077 19.4059 267.049V267.912L23.8159 267.095H20.4036ZM20.4036 267.095C20.071 267.095 19.7385 267.077 19.4059 267.049V267.912L23.8159 267.095H20.4036ZM20.4036 267.095C20.071 267.095 19.7385 267.077 19.4059 267.049V267.912L23.8159 267.095H20.4036ZM20.4036 267.095C20.071 267.095 19.7385 267.077 19.4059 267.049V267.912L23.8159 267.095H20.4036ZM20.4036 267.095C20.071 267.095 19.7385 267.077 19.4059 267.049V267.912L23.8159 267.095H20.4036ZM20.4036 267.095C20.071 267.095 19.7385 267.077 19.4059 267.049V267.912L23.8159 267.095H20.4036ZM20.4036 267.095C20.071 267.095 19.7385 267.077 19.4059 267.049C17.0269 266.851 14.72 265.931 12.6785 264.368C10.6371 262.804 8.92044 260.643 7.67256 258.063H5.99533C7.11184 260.652 8.64676 262.912 10.4994 264.695C12.3521 266.477 14.4806 267.743 16.7455 268.408L19.4059 267.912L23.8159 267.095H20.4036ZM488.596 1.52588e-05H20.4036C16.0547 0.00666587 11.8854 2.20297 8.8103 6.10717C5.73516 10.0114 4.00524 15.3047 4 20.8261V248.105C3.99911 252.821 5.25961 257.399 7.57509 261.087C9.89058 264.775 13.1239 267.357 16.7455 268.408C17.6202 268.661 18.5102 268.82 19.4059 268.885C19.7313 268.922 20.071 268.931 20.4036 268.931H488.596C488.98 268.931 489.355 268.912 489.724 268.876C490.382 268.825 491.037 268.717 491.683 268.554C492.161 268.444 492.638 268.297 493.1 268.132C493.804 267.879 494.492 267.563 495.161 267.187C496.668 266.354 498.066 265.23 499.303 263.855C499.404 263.754 499.506 263.644 499.607 263.525C500.971 261.959 502.117 260.113 502.997 258.063C504.309 255.008 504.997 251.584 505 248.105V20.8261C504.995 15.3047 503.265 10.0114 500.19 6.10717C497.115 2.20297 492.945 0.00666587 488.596 1.52588e-05ZM503.554 248.105C503.554 249.485 503.435 250.86 503.2 252.207C502.923 253.828 502.476 255.393 501.87 256.861C501.306 258.242 500.609 259.527 499.795 260.688V260.698L499.788 260.707C499.73 260.789 499.665 260.881 499.6 260.964C497.814 263.439 495.541 265.265 493.014 266.251C492.782 266.342 492.551 266.425 492.32 266.508C492.218 266.544 492.117 266.572 492.009 266.599C491.293 266.811 490.566 266.952 489.833 267.022C489.422 267.074 489.009 267.098 488.596 267.095H20.4036C20.071 267.095 19.7385 267.077 19.4059 267.049C15.6212 266.725 12.0745 264.589 9.48298 261.072C6.89146 257.556 5.44849 252.921 5.44585 248.105V144.727C5.44585 144.094 5.44585 143.469 5.45308 142.845C5.82994 105.272 17.8544 69.4002 38.9203 43.0052C59.9863 16.6103 88.3965 1.81853 117.994 1.83572H488.596C490.561 1.83522 492.506 2.32608 494.321 3.28026C496.136 4.23444 497.785 5.63324 499.174 7.39675C500.563 9.16027 501.665 11.254 502.416 13.5582C503.168 15.8624 503.554 18.3321 503.554 20.8261L503.554 248.105ZM20.4036 267.095C20.071 267.095 19.7385 267.077 19.4059 267.049V267.912L23.8159 267.095H20.4036ZM20.4036 267.095C20.071 267.095 19.7385 267.077 19.4059 267.049V267.912L23.8159 267.095H20.4036ZM20.4036 267.095C20.071 267.095 19.7385 267.077 19.4059 267.049V267.912L23.8159 267.095H20.4036ZM20.4036 267.095C20.071 267.095 19.7385 267.077 19.4059 267.049V267.912L23.8159 267.095H20.4036ZM20.4036 267.095C20.071 267.095 19.7385 267.077 19.4059 267.049V267.912L23.8159 267.095H20.4036ZM20.4036 267.095C20.071 267.095 19.7385 267.077 19.4059 267.049V267.912L23.8159 267.095H20.4036ZM20.4036 267.095C20.071 267.095 19.7385 267.077 19.4059 267.049V267.912L23.8159 267.095H20.4036ZM20.4036 267.095C20.071 267.095 19.7385 267.077 19.4059 267.049V267.912L23.8159 267.095H20.4036ZM281.82 267.095L307.044 268.931H323.144L331.732 268.334L334.711 268.132L341.456 267.673L345.62 267.389L348.519 267.187H348.526L349.864 267.095H281.82ZM83.5094 267.095V268.931H121.001V267.095H83.5094ZM20.4036 267.095C20.071 267.095 19.7385 267.077 19.4059 267.049V267.912L23.8159 267.095H20.4036ZM281.82 267.095L307.044 268.931H323.144L331.732 268.334L334.711 268.132L341.456 267.673L345.62 267.389L348.519 267.187H348.526L349.864 267.095H281.82ZM83.5094 267.095V268.931H121.001V267.095H83.5094ZM20.4036 267.095C20.071 267.095 19.7385 267.077 19.4059 267.049V267.912L23.8159 267.095H20.4036ZM488.596 267.095H487.237L487.317 268.931H488.596C488.98 268.931 489.355 268.912 489.724 268.876L489.789 267.728L489.833 267.022C489.422 267.074 489.009 267.098 488.596 267.095ZM281.82 267.095L307.044 268.931H323.144L331.732 268.334L334.711 268.132L341.456 267.673L345.62 267.389L348.519 267.187H348.526L349.864 267.095H281.82ZM83.5094 267.095V268.931H121.001V267.095H83.5094Z" fill="black" fill-opacity="0.71"/>
</g>
<defs>
<filter id="filter0_d_3_64" x="0" y="0" width="509" height="278" filterUnits="userSpaceOnUse" color-interpolation-filters="sRGB">
<feFlood flood-opacity="0" result="BackgroundImageFix"/>
<feColorMatrix in="SourceAlpha" type="matrix" values="0 0 0 0 0 0 0 0 0 0 0 0 0 0 0 0 0 0 127 0" result="hardAlpha"/>
<feOffset dy="4"/>
<feGaussianBlur stdDeviation="2"/>
<feComposite in2="hardAlpha" operator="out"/>
<feColorMatrix type="matrix" values="0 0 0 0 0 0 0 0 0 0 0 0 0 0 0 0 0 0 0.25 0"/>
<feBlend mode="normal" in2="BackgroundImageFix" result="effect1_dropShadow_3_64"/>
<feBlend mode="normal" in="SourceGraphic" in2="effect1_dropShadow_3_64" result="shape"/>
</filter>
<clipPath id="clip0_3_64">
<rect width="501" height="270" fill="white" transform="translate(4)"/>
</clipPath>
</defs>
</svg>
