<svg width="40" height="40" viewBox="0 0 40 40" fill="none" xmlns="http://www.w3.org/2000/svg">
<rect x="0.5" y="0.5" width="39" height="39" fill="#050402"/>
<rect x="0.5" y="0.5" width="39" height="39" stroke="#BB8C5F"/>
<path fill-rule="evenodd" clip-rule="evenodd" d="M32.4564 19.0441C32.4538 25.5997 27.1209 30.9339 20.5639 30.9366H20.5589C18.5685 30.9359 16.6128 30.4365 14.8757 29.489L8.57129 31.1428L10.2585 24.9802C9.21773 23.1766 8.6701 21.1307 8.671 19.0347C8.67361 12.4776 14.0086 7.14282 20.5637 7.14282C23.7452 7.1442 26.7311 8.38271 28.9765 10.6307C31.2218 12.8785 32.4577 15.8664 32.4564 19.0441ZM11.4267 28.3174L15.1678 27.336L15.5288 27.5502C17.0464 28.4508 18.7861 28.9273 20.5598 28.928H20.5639C26.012 28.928 30.4462 24.4937 30.4484 19.0433C30.4494 16.4021 29.4223 13.9186 27.556 12.0502C25.6898 10.1818 23.2079 9.15235 20.5677 9.15144C15.1154 9.15144 10.6811 13.5853 10.6789 19.0353C10.6782 20.903 11.2008 22.722 12.1902 24.2958L12.4253 24.6698L11.4267 28.3174Z" fill="#BB8C5F"/>
<path d="M26.32 22.6151C26.2458 22.4912 26.0477 22.4168 25.7505 22.268C25.4534 22.1193 23.9924 21.4005 23.72 21.3012C23.4477 21.2021 23.2495 21.1526 23.0514 21.45C22.8534 21.7474 22.2839 22.4168 22.1105 22.6151C21.9372 22.8134 21.7638 22.8383 21.4668 22.6895C21.1696 22.5408 20.2121 22.227 19.0771 21.2146C18.1937 20.4266 17.5973 19.4536 17.424 19.1561C17.2506 18.8586 17.4055 18.6978 17.5543 18.5496C17.688 18.4164 17.8514 18.2025 18 18.029C18.1486 17.8555 18.1981 17.7315 18.2972 17.5333C18.3962 17.3349 18.3467 17.1614 18.2724 17.0127C18.1981 16.8639 17.6038 15.4013 17.3562 14.8063C17.115 14.2268 16.87 14.3053 16.6876 14.2962C16.5145 14.2875 16.3162 14.2856 16.1181 14.2856C15.92 14.2856 15.598 14.36 15.3257 14.6575C15.0533 14.955 14.2856 15.6739 14.2856 17.1365C14.2856 18.5992 15.3504 20.0122 15.499 20.2105C15.6476 20.4089 17.5944 23.4103 20.5753 24.6974C21.2843 25.0036 21.8377 25.1864 22.2693 25.3234C22.9812 25.5496 23.629 25.5177 24.141 25.4411C24.7119 25.3558 25.8991 24.7223 26.1468 24.0282C26.3943 23.334 26.3943 22.739 26.32 22.6151Z" fill="#BB8C5F"/>
</svg>
