<svg width="40" height="40" viewBox="0 0 40 40" fill="none" xmlns="http://www.w3.org/2000/svg">
<rect x="0.5" y="0.5" width="39" height="39" fill="#050402"/>
<rect x="0.5" y="0.5" width="39" height="39" stroke="#BB8C5F"/>
<path d="M25.3196 16.9105C25.2294 16.1759 25.0041 15.599 24.6041 15.0881C24.0847 14.4302 23.421 14.0362 22.4383 13.8025C21.7979 13.6467 21.5391 13.6646 21.3075 13.8767C21.0917 14.0754 21.0496 14.4738 21.2145 14.7318C21.3304 14.919 21.4642 14.9861 21.8362 15.0593C22.3317 15.1507 22.674 15.2693 22.9855 15.4478C23.6465 15.8304 23.9543 16.4292 23.9873 17.3986C24.0027 17.8538 24.0419 17.9937 24.2005 18.1552C24.4944 18.4502 25.0175 18.3929 25.2394 18.0397C25.3208 17.9066 25.3332 17.8487 25.3418 17.5396C25.3475 17.3483 25.3393 17.0635 25.3196 16.9105Z" fill="#BB8C5F"/>
<path d="M27.9083 17.7391C27.7777 15.4883 26.8996 13.6775 25.328 12.4034C24.4425 11.6875 23.3721 11.1953 22.1989 10.9559C21.7691 10.8702 20.9779 10.8008 20.8421 10.8405C20.714 10.8773 20.5328 11.0164 20.4521 11.1421C20.3667 11.2785 20.3474 11.5829 20.4203 11.759C20.5379 12.0534 20.7566 12.1574 21.3692 12.2112C22.3136 12.294 23.2876 12.6266 24.0236 13.119C24.8639 13.6797 25.5318 14.4466 25.9639 15.3477C26.3372 16.1219 26.5669 17.2377 26.5605 18.2369C26.5584 18.5983 26.614 18.8024 26.759 18.9516C26.9778 19.181 27.2968 19.2312 27.5783 19.0788C27.8902 18.9143 27.9632 18.6256 27.9083 17.7391Z" fill="#BB8C5F"/>
<path d="M30.7736 26.4064C30.7297 26.2777 30.6272 26.0793 30.554 25.9654C30.0928 25.2672 27.6148 23.3231 26.3776 22.6873C25.6712 22.3235 25.1478 22.2022 24.7598 22.3161C24.3425 22.4337 24.1229 22.6285 23.4237 23.4995C23.1419 23.8486 22.8528 24.1757 22.7759 24.2271C22.5855 24.3594 22.2122 24.466 21.9487 24.466C21.3374 24.4623 20.2283 24.0654 19.3755 23.5435C18.7129 23.1393 17.8638 22.4154 17.2122 21.6987C16.4435 20.8571 15.9202 20.1148 15.5065 19.2769C14.9721 18.2001 14.8367 17.5423 15.06 17.0608C15.1149 16.9396 15.1881 16.811 15.221 16.7705C15.254 16.7338 15.5981 16.4508 15.9787 16.1421C16.7254 15.5468 16.8462 15.4108 16.9853 15.0029C17.161 14.4847 17.1134 13.9555 16.8425 13.4226C16.6339 13.0183 16.0885 12.1364 15.6932 11.5667C15.1698 10.8171 13.8667 9.21477 13.6068 8.99788C13.1383 8.61572 12.5381 8.54953 11.8755 8.80684C11.1764 9.07879 9.86601 10.1372 9.30597 10.8759C8.80084 11.5447 8.60691 12.0188 8.5776 12.6435C8.552 13.158 8.5959 13.3711 8.86677 14.029C10.9861 19.1887 14.1485 23.3083 18.4933 26.5791C20.7627 28.288 23.1163 29.5889 25.5577 30.4783C26.9815 30.9965 27.6001 31.0222 28.3285 30.5959C28.636 30.4121 29.3973 29.6294 29.8219 29.0598C30.5247 28.1116 30.7846 27.6743 30.8578 27.3251C30.909 27.0863 30.8688 26.671 30.7736 26.4064Z" fill="#BB8C5F"/>
<path d="M30.5442 18.2554C30.4973 16.9823 30.2835 15.938 29.8376 14.7737C29.3974 13.6284 28.9519 12.8811 28.1106 11.8702C27.3151 10.9225 26.6973 10.3813 25.7174 9.77892C24.3503 8.93963 22.6866 8.38422 20.8221 8.15064C20.1862 8.06901 20.0424 8.07484 19.8473 8.20532C19.4693 8.45252 19.4743 9.06907 19.8536 9.31255C19.9791 9.39001 20.0905 9.41822 20.5991 9.48496C21.3799 9.59034 21.8819 9.68965 22.4776 9.8526C24.8137 10.4928 26.6101 11.8013 27.8111 13.7438C28.8162 15.3629 29.2334 16.9821 29.1741 19.0501C29.1535 19.7492 29.1685 19.8723 29.2751 20.0403C29.4793 20.3533 30.0176 20.4153 30.2938 20.1555C30.4657 19.9971 30.4981 19.8783 30.5319 19.2799C30.5482 18.9677 30.5516 18.507 30.5442 18.2554Z" fill="#BB8C5F"/>
</svg>
